<?xml version="1.0" encoding="UTF-8"?>
<svg xmlns="http://www.w3.org/2000/svg" viewBox="0 0 100 100">
  <defs>
    <style>
      .cls-1 {
        fill: #1c1c1c;
      }

      .cls-2 {
        fill: #5ff573;
      }

      .cls-3 {
        stroke-linecap: round;
        stroke-linejoin: round;
      }

      .cls-3, .cls-4 {
        fill: #fb6d33;
        stroke: #000;
        stroke-width: 2px;
      }

      .cls-5 {
        fill: #fbfc13;
      }

      .cls-4 {
        stroke-miterlimit: 10;
      }
    </style>
  </defs>
  <g id="Background">
    <rect class="cls-2" width="100" height="100"/>
    <path class="cls-5" d="M100,0s0,2.08997-.00004,2.08998c-7.44696,2.34414-15.12321,5.01052-21.71569,9.27971-2.52062,1.63231-5.42601,3.53117-6.55422,6.45081-.76508,1.97993-.5797,4.17698-.62412,6.29912-.292,13.94887-11.69669,25.11797-22.26244,32.80668-6.68132,4.86201-14.46212,9.0212-22.75346,10.12369-12.72003,1.69-20.58002,18.90997-24.89001,32.95001H0V0h100Z"/>
  </g>
  <g id="Icon">
    <path class="cls-1" d="M89.36637,25.72139h-9.22211v-3.69037c0-3.33105-2.69006-6.02106-6.02106-6.02106h-34.86414c-3.33099,0-6.02106,2.69-6.02106,6.02106v3.69037h-9.22211c-1.28394,0-2.32477,1.04083-2.32477,2.32477v8.76196c0,1.28394,1.04083,2.32477,2.32477,2.32477h4.36639l5.2074,48.44403c.37445,3.48352,3.31458,6.12451,6.81812,6.12451h32.56665c3.50354,0,6.44366-2.64099,6.81812-6.12451l5.2074-48.44403h4.36639c1.28394,0,2.32477-1.04083,2.32477-2.32477v-8.76196c0-1.28394-1.04083-2.32477-2.32477-2.32477Z"/>
    <g>
      <path class="cls-4" d="M73.45315,20.86569v-3.69033c0-3.33108-2.69009-6.0211-6.0211-6.0211h-34.86408c-3.33102,0-6.0211,2.69003-6.0211,6.0211v3.69033h46.90629Z"/>
      <path class="cls-4" d="M26.54685,20.86569h-9.22208c-1.28394,0-2.32478,1.04084-2.32478,2.32478v8.76194c0,1.28394,1.04084,2.32478,2.32478,2.32478h65.35044c1.28394,0,2.32478-1.04084,2.32478-2.32478v-8.76194c0-1.28394-1.04084-2.32478-2.32478-2.32478H26.54685Z"/>
      <path class="cls-4" d="M21.69114,34.27718l5.2074,48.44407c.37445,3.48349,3.31457,6.1245,6.81813,6.1245h32.56667c3.50355,0,6.44368-2.64102,6.81813-6.1245l5.2074-48.44407H21.69114Z"/>
    </g>
    <g>
      <line class="cls-3" x1="50" y1="40" x2="50" y2="85"/>
      <g>
        <line class="cls-3" x1="37.75" y1="85" x2="32.75" y2="40"/>
        <line class="cls-3" x1="62.25" y1="85" x2="67.25" y2="40"/>
      </g>
    </g>
  </g>
</svg>