<?xml version="1.0" encoding="UTF-8"?>
<svg xmlns="http://www.w3.org/2000/svg" viewBox="0 0 101.44925 100">
  <defs>
    <style>
      .cls-1 {
        fill: #1c1c1c;
      }

      .cls-2 {
        fill: #fb4ec9;
      }

      .cls-3 {
        fill: #fb6d33;
        stroke: #000;
        stroke-linecap: round;
        stroke-miterlimit: 10;
        stroke-width: 2px;
      }

      .cls-4 {
        fill: #fbfc13;
      }
    </style>
  </defs>
  <g id="Background">
    <rect class="cls-4" x="1.44925" width="100" height="100"/>
    <path class="cls-2" d="M101.44925,0s0,2.08997-.00004,2.08998c-7.44696,2.34414-15.12321,5.01052-21.71569,9.27971-2.52062,1.63231-5.42601,3.53117-6.55422,6.45081-.76508,1.97993-.5797,4.17698-.62412,6.29912-.292,13.94887-11.69669,25.11797-22.26244,32.80668-6.68132,4.86201-14.46212,9.0212-22.75346,10.12369-12.72003,1.69-20.58002,18.90997-24.89001,32.95001h-1.20001V0h100Z"/>
  </g>
  <g id="Icon">
    <g>
      <path class="cls-1" d="M70.52305,60.93648h27.24078v35h-35v-27.24078c0-4.28243,3.47679-7.75922,7.75922-7.75922Z"/>
      <path class="cls-1" d="M17.76383,60.93648h27.24078c4.28243,0,7.75922,3.47679,7.75922,7.75922v27.24078H17.76383v-35h0Z"/>
      <path class="cls-1" d="M62.76307,15.96399h35v35h-27.24078c-4.28243,0-7.75922-3.47679-7.75922-7.75922V15.96399h0Z"/>
      <path class="cls-1" d="M17.76383,15.96399h35v27.24078c0,4.28243-3.47679,7.75922-7.75922,7.75922h-27.24078V15.96399h0Z"/>
    </g>
    <g>
      <path class="cls-3" d="M63.74833,54.82018h26.25837v33.73777h-33.73777v-26.25837c0-4.12799,3.35141-7.4794,7.4794-7.4794Z"/>
      <path class="cls-3" d="M12.8918,54.82018h26.25837c4.12799,0,7.4794,3.35141,7.4794,7.4794v26.25837H12.8918v-33.73777h0Z"/>
      <path class="cls-3" d="M56.26821,11.46956h33.73777v33.73777h-26.25837c-4.12799,0-7.4794-3.35141-7.4794-7.4794V11.46956h0Z"/>
      <path class="cls-3" d="M12.8918,11.46956h33.73777v26.25837c0,4.12799-3.35141,7.4794-7.4794,7.4794H12.8918V11.46956h0Z"/>
    </g>
  </g>
</svg>