<svg width="24" height="24" viewBox="0 0 24 24" fill="none" xmlns="http://www.w3.org/2000/svg">
<path fill-rule="evenodd" clip-rule="evenodd" d="M9.00003 2.75C8.86196 2.75 8.75003 2.86193 8.75003 3V5C8.75003 5.13807 8.86196 5.25 9.00003 5.25H15C15.1381 5.25 15.25 5.13807 15.25 5V4.00702C15.25 4.00467 15.25 4.00232 15.25 3.99997C15.25 3.99762 15.25 3.99527 15.25 3.99292V3C15.25 2.86193 15.1381 2.75 15 2.75H9.00003ZM16.75 3.24997V3C16.75 2.0335 15.9665 1.25 15 1.25H9.00003C8.03353 1.25 7.25003 2.0335 7.25003 3V3.24997H6C5.27065 3.24997 4.57118 3.5397 4.05546 4.05542C3.53973 4.57115 3.25 5.27062 3.25 5.99997V20C3.25 20.7293 3.53973 21.4288 4.05546 21.9445C4.57118 22.4602 5.27065 22.75 6 22.75H18C18.7293 22.75 19.4288 22.4602 19.9445 21.9445C20.4603 21.4288 20.75 20.7293 20.75 20V5.99997C20.75 5.27062 20.4603 4.57115 19.9445 4.05542C19.4288 3.5397 18.7293 3.24997 18 3.24997H16.75ZM16.75 4.74997V5C16.75 5.9665 15.9665 6.75 15 6.75H9.00003C8.03353 6.75 7.25003 5.9665 7.25003 5V4.74997H6C5.66848 4.74997 5.35054 4.88166 5.11612 5.11608C4.8817 5.3505 4.75 5.66845 4.75 5.99997V20C4.75 20.3315 4.8817 20.6494 5.11612 20.8838C5.35054 21.1183 5.66848 21.25 6 21.25H18C18.3315 21.25 18.6495 21.1183 18.8839 20.8838C19.1183 20.6494 19.25 20.3315 19.25 20V5.99997C19.25 5.66845 19.1183 5.3505 18.8839 5.11608C18.6495 4.88166 18.3315 4.74997 18 4.74997H16.75Z" fill="currentColor"/>
</svg>
