<svg width="24" height="24" viewBox="0 0 24 24" fill="none" xmlns="http://www.w3.org/2000/svg">
<path fill-rule="evenodd" clip-rule="evenodd" d="M13.1627 3.83373C11.3916 3.58252 9.58694 3.91372 8.02053 4.77743C6.45411 5.64114 5.21085 6.99055 4.47808 8.62232C3.74531 10.2541 3.56273 12.0798 3.95787 13.8244C4.35301 15.569 5.30444 17.1378 6.66881 18.2946C8.03318 19.4514 9.73655 20.1334 11.5223 20.2379C13.308 20.3424 15.0792 19.8636 16.5692 18.8738C18.0591 17.884 19.187 16.4368 19.7829 14.7502C19.9209 14.3596 20.3493 14.1549 20.7399 14.2929C21.1304 14.4308 21.3352 14.8593 21.1972 15.2499C20.493 17.2431 19.16 18.9535 17.3992 20.1232C15.6384 21.293 13.545 21.8588 11.4347 21.7353C9.32428 21.6119 7.3112 20.8059 5.69876 19.4387C4.08633 18.0716 2.96191 16.2175 2.49493 14.1557C2.02795 12.094 2.24371 9.93631 3.10971 8.00784C3.97571 6.07938 5.44503 4.48462 7.29625 3.46388C9.14746 2.44313 11.2803 2.05171 13.3733 2.34859C15.4625 2.64493 17.3991 3.61102 18.8923 5.10164L22.25 8.26353V3.99998C22.25 3.58577 22.5858 3.24998 23 3.24998C23.4142 3.24998 23.75 3.58577 23.75 3.99998V9.99998C23.75 10.4142 23.4142 10.75 23 10.75H17C16.5858 10.75 16.25 10.4142 16.25 9.99998C16.25 9.58577 16.5858 9.24998 17 9.24998H21.1096L17.8559 6.18603C17.8503 6.18083 17.8449 6.17554 17.8395 6.17018C16.5751 4.90494 14.9337 4.08493 13.1627 3.83373Z" fill="currentColor"/>
</svg>
