<svg width="24" height="24" viewBox="0 0 24 24" fill="none" xmlns="http://www.w3.org/2000/svg">
<path fill-rule="evenodd" clip-rule="evenodd" d="M10.6402 2.3545C12.7334 2.05999 14.8657 2.45376 16.7157 3.47645C18.5657 4.49915 20.0332 6.09539 20.8971 8.02465C21.761 9.95391 21.9746 12.1117 21.5055 14.1729C21.0365 16.234 19.9103 18.0869 18.2966 19.4524C16.6829 20.8178 14.6692 21.6218 12.5588 21.7433C10.4484 21.8648 8.35575 21.2971 6.59606 20.1258C4.83638 18.9545 3.50503 17.243 2.8026 15.2493C2.66496 14.8586 2.87009 14.4303 3.26076 14.2927C3.65144 14.155 4.07972 14.3602 4.21737 14.7509C4.81173 16.4379 5.93826 17.886 7.42722 18.8771C8.91618 19.8682 10.6869 20.3486 12.4726 20.2458C14.2583 20.143 15.9622 19.4627 17.3277 18.3073C18.6931 17.1519 19.646 15.5841 20.0429 13.84C20.4398 12.096 20.2591 10.2701 19.5281 8.63769C18.7971 7.00524 17.5553 5.65458 15.99 4.78922C14.4246 3.92386 12.6204 3.59067 10.8492 3.83987C9.07795 4.08907 7.4357 4.90715 6.16987 6.17085C6.16451 6.1762 6.15908 6.18146 6.15356 6.18664L2.89341 9.25004H6.99998C7.4142 9.25004 7.74998 9.58583 7.74998 10C7.74998 10.4143 7.4142 10.75 6.99998 10.75H0.999985C0.585771 10.75 0.249985 10.4143 0.249985 10V4.00004C0.249985 3.58583 0.585771 3.25004 0.999985 3.25004C1.4142 3.25004 1.74998 3.58583 1.74998 4.00004V8.26615L5.1183 5.10112C6.61318 3.61231 8.55075 2.64847 10.6402 2.3545Z" fill="currentColor"/>
</svg>
