<?xml version="1.0" encoding="UTF-8"?>
<svg xmlns="http://www.w3.org/2000/svg" viewBox="0 0 100 100">
  <defs>
    <style>
      .cls-1 {
        fill: #212121;
      }

      .cls-2 {
        fill: #fb4ec9;
      }

      .cls-3 {
        fill: #fb6d33;
      }

      .cls-4 {
        fill: #0ed7fb;
      }
    </style>
  </defs>
  <g id="Background">
    <rect class="cls-4" width="100" height="100"/>
    <path class="cls-2" d="M100,0v68.35999c-16.48999,5.28998-39.70001,5.60999-50-13.21997C39.27002,35.52997,14.46002,39.75,0,44.29999V0h100Z"/>
  </g>
  <g id="Icon">
    <path class="cls-1" d="M96.12,47.92695l-7.91998-.56c-1.09003-.07001-2.03003-.82001-2.32001-1.88-.67999-2.39001-1.63-4.66998-2.82001-6.81-.52997-.96002-.40002-2.15002.32001-2.96997l5.21997-5.99005c.90002-1.03998.85004-2.59998-.12-3.56995l-5.29999-5.32001c-.97998-.97003-2.53998-1.03003-3.58002-.12l-5.98999,5.20996c-.82996.72003-2.01996.84003-2.97998.31-2.13-1.19-4.41003-2.14996-6.81-2.82996-1.04999-.30005-1.79999-1.23004-1.87-2.33002l-.54004-7.91998c-.09998-1.37006-1.23999-2.44-2.62-2.44l-7.5-.01001c-1.38,0-2.51996,1.06-2.62,2.44l-.56,7.91998c-.07001,1.09003-.82001,2.02997-1.88,2.32001-2.38995.67999-4.66998,1.63-6.81,2.82001-.95996.52997-2.14996.39996-2.96997-.32001l-5.98999-5.22003c-1.04004-.89996-2.60004-.84998-3.57001.12l-5.32001,5.30005c-.97003.97998-1.03003,2.53998-.12,3.57996l5.20996,5.99005c.72003.82996.84003,2.01996.31,2.97998-1.18994,2.13-2.14996,4.40997-2.82996,6.81-.29999,1.04999-1.23004,1.79999-2.33002,1.87l-7.91998.53998c-1.37.10004-2.44,1.23999-2.44,2.62l-.01001,7.5c0,1.38,1.06,2.52002,2.44,2.62l7.91998.56006c1.09003.06995,2.03003.81995,2.32001,1.87994.67999,2.39001,1.63,4.67004,2.82001,6.81.52997.96002.40002,2.15002-.32001,2.97003l-5.21997,5.98999c-.90002,1.03998-.85004,2.60004.12,3.58002l5.29999,5.31c.97998.96997,2.53998,1.02997,3.58002.12l5.98999-5.21002c.82996-.71997,2.01996-.83997,2.97998-.31,2.13,1.19,4.41003,2.15002,6.81,2.83002,1.04999.29999,1.79999,1.22998,1.87,2.33002l.54004,7.91998c.09998,1.37,1.23999,2.44,2.62,2.44l7.5.01001c1.38,0,2.51996-1.06,2.62-2.44l.56-7.91998c.07001-1.09003.82001-2.03003,1.88-2.32001,2.38995-.67999,4.66998-1.63,6.81-2.82001.95996-.53003,2.14996-.40002,2.96997.32001l5.98999,5.21997c1.04004.90002,2.60004.85004,3.58002-.12l5.31-5.29999c.97003-.97998,1.03003-2.53998.12-3.58002l-5.20996-5.98999c-.72003-.83002-.84003-2.02002-.31-2.97998,1.18994-2.13,2.14996-4.41003,2.82996-6.81.29999-1.05005,1.23004-1.80005,2.33002-1.87l7.91998-.54004c1.37-.09998,2.44-1.23999,2.44-2.62l.01001-7.5c0-1.38-1.06-2.52002-2.44-2.62ZM55,71.75697c-9.65997,0-17.5-7.84003-17.5-17.5s7.84003-17.5,17.5-17.5,17.5,7.83997,17.5,17.5-7.84003,17.5-17.5,17.5Z"/>
    <g>
      <path class="cls-3" d="M46.21143,92.5498c-.84961,0-1.5625-.66406-1.62402-1.5127l-.54004-7.91504c-.0957-1.51074-1.1377-2.80762-2.59277-3.22363-2.27637-.64551-4.49512-1.56738-6.59668-2.74121-.54004-.29785-1.14648-.45508-1.75781-.45508-.86963,0-1.70947.31348-2.36523.88281l-5.99121,5.20996c-.29639.25977-.67383.40137-1.06445.40137-.43457,0-.84473-.16895-1.15576-.47754l-5.2959-5.30469c-.59424-.60156-.62695-1.57715-.07129-2.21973l5.21777-5.9873c.99414-1.13184,1.17285-2.78516.44141-4.11035-1.16357-2.0918-2.08301-4.3125-2.7334-6.60059-.39844-1.45605-1.69287-2.50586-3.21777-2.60449l-7.91406-.55859c-.86035-.0625-1.51025-.75977-1.51025-1.62305l.01025-7.49854c0-.84961.66455-1.5625,1.5127-1.62402l7.91504-.54004c1.51025-.0957,2.80762-1.1377,3.22363-2.59229.64404-2.27393,1.56592-4.49316,2.74121-6.59717.73389-1.32861.56104-2.98389-.42725-4.12305l-5.21094-5.99121c-.55908-.63916-.5249-1.61328.07617-2.22021l5.31494-5.29492c.30469-.30469.70898-.47119,1.14014-.47119.39258,0,.77246.1416,1.06982.39893l5.98779,5.21777c.65234.57275,1.49512.88965,2.36963.88965.60693,0,1.2085-.15479,1.74023-.44824,2.09277-1.16357,4.31299-2.08301,6.6001-2.7334,1.45605-.39844,2.50684-1.69287,2.60449-3.21826l.55957-7.91357c.0625-.86035.75977-1.51025,1.62256-1.51025l7.49902.01025c.84863,0,1.56152.66455,1.62402,1.51318l.53906,7.91455c.0957,1.51025,1.1377,2.80762,2.59375,3.22363,2.27539.64502,4.49414,1.56689,6.59668,2.74121.54004.29834,1.14551.45459,1.75684.45459.87012,0,1.70996-.31299,2.36621-.88184l5.99023-5.21094c.29688-.25928.67383-.40137,1.06445-.40137.43457,0,.84473.16943,1.15625.47705l5.2959,5.31543c.59668.59717.62695,1.56738.07129,2.20996l-5.21777,5.98779c-.99414,1.13184-1.17285,2.78467-.44238,4.10938,1.16406,2.09277,2.08398,4.3125,2.73438,6.60059.39844,1.45605,1.69238,2.50684,3.21875,2.60449l7.91309.55957c.85938.0625,1.50977.75977,1.50977,1.62256l-.00977,7.49902c0,.84863-.66406,1.56152-1.5127,1.62402l-7.91504.53906c-1.51074.0957-2.80762,1.1377-3.22363,2.59375-.64551,2.27637-1.56738,4.49512-2.74121,6.59668-.7334,1.32812-.56152,2.9834.42676,4.12305l5.21094,5.99023c.55957.63965.52539,1.61328-.0752,2.21973l-5.30566,5.29688c-.30566.30176-.71484.4707-1.14844.4707h0c-.39355,0-.77344-.14258-1.07129-.39941l-5.9873-5.21777c-.65234-.57324-1.49512-.88965-2.37012-.88965-.60742,0-1.20898.1543-1.73926.44727-2.09277,1.16406-4.3125,2.08398-6.60156,2.73438-1.45605.39844-2.50586,1.69238-2.60449,3.21777l-.55859,7.91406c-.0625.85938-.75977,1.50977-1.62207,1.50977l-7.49951-.00977ZM50,31.5c-10.20117,0-18.5,8.29883-18.5,18.5s8.29883,18.5,18.5,18.5,18.5-8.29883,18.5-18.5-8.29883-18.5-18.5-18.5Z"/>
      <path d="M46.28872,8.44l7.50127.01001c.32668,0,.60132.2572.62461.57606l.53944,7.91094c.12323,1.93626,1.456,3.59439,3.32076,4.12726,2.19914.62308,4.3456,1.51523,6.38854,2.65657.6834.37731,1.45671.57674,2.23634.57674,1.11047,0,2.18333-.40022,3.02285-1.12857l5.99445-5.21383c.1434-.12548.29848-.15182.40332-.15182.09814,0,.28743.02443.44283.17817l5.3027,5.32274c.22689.22688.23649.59886.02634.84171l-5.21496,5.98434c-1.27429,1.45111-1.50261,3.56343-.56513,5.26163,1.12447,2.02219,2.01414,4.17051,2.63882,6.36579.51357,1.87731,2.16966,3.22283,4.10806,3.34726l7.91654.55975c.33323.02414.5845.29294.5845.62255l-.01001,7.50268c0,.32666-.2572.60132-.57607.62461l-7.91083.53944c-1.93643.12312-3.59462,1.45594-4.12737,3.32076-.62302,2.19893-1.51518,4.3454-2.65654,6.38849-.93298,1.68977-.71191,3.80249.5518,5.25923l5.21384,5.99445c.21696.24797.20139.61598-.02771.84747l-5.30408,5.29411c-.16187.16022-.35024.18414-.44814.18414-.10811,0-.26807-.02691-.41096-.15052l-5.98435-5.21505c-.838-.7358-1.91505-1.14103-3.03275-1.14103-.77564,0-1.54454.19816-2.2288.57597-2.02213,1.12444-4.17046,2.01411-6.36579,2.63882-1.87731.51357-3.22283,2.16966-3.34726,4.10806l-.55975,7.91645c-.02415.33327-.29295.58459-.62255.58459l-7.50268-.01001c-.32666,0-.60132-.2572-.62461-.57607l-.53944-7.91093c-.12323-1.93637-1.45603-3.59451-3.32076-4.12727-2.19899-.62303-4.34545-1.51521-6.38865-2.65669-.68337-.37723-1.45663-.57663-2.2362-.57663-1.11043,0-2.18328.40017-3.02289,1.12852l-5.99437,5.21384c-.14342.12548-.29851.15182-.40337.15182-.09815,0-.28749-.02443-.44417-.17947l-5.29412-5.30409c-.23248-.23486-.24526-.61447-.0336-.85908l5.21502-5.98434c1.27425-1.45115,1.50254-3.56348.56508-5.26166-1.12443-2.02203-2.01409-4.17037-2.63881-6.36576-.51359-1.87738-2.16972-3.22288-4.10805-3.3472l-7.91655-.55981c-.33323-.02414-.58451-.29294-.58451-.62255l.01002-7.50268c0-.32666.25725-.60132.57605-.62461l7.91095-.53938c1.93637-.12323,3.59451-1.45605,4.12726-3.32077.62298-2.19886,1.51515-4.34533,2.65657-6.38852.93295-1.68985.71186-3.80259-.55182-5.25919l-5.21389-5.99455c-.21694-.24791-.20134-.61589.02641-.84605l5.32268-5.30271c.15391-.15392.33658-.17689.4318-.17688.10771.00002.2672.02692.41.15048l5.98443,5.21515c.83799.73574,1.91502,1.14094,3.03271,1.14094.7756,0,1.54445-.19812,2.22878-.57592,2.02213-1.12445,4.17046-2.01411,6.36588-2.63885,1.87726-.51368,3.22274-2.16975,3.34717-4.10805l.55975-7.91645c.02412-.33285.29227-.58395.62396-.5846M50,69.5c10.75234,0,19.5-8.74766,19.5-19.5s-8.74766-19.5-19.5-19.5-19.5,8.74766-19.5,19.5,8.74766,19.5,19.5,19.5M46.28999,6.44c-1.38002,0-2.51997,1.06-2.62,2.44l-.56,7.91998c-.07,1.09003-.82,2.02997-1.88,2.32002-2.38995.67998-4.66998,1.63-6.81,2.82-.39397.2175-.82682.32386-1.25681.32386-.61773,0-1.22969-.21937-1.71316-.64386l-5.99-5.22003c-.49634-.4295-1.1113-.64264-1.72383-.64268-.67098-.00005-1.3391.2556-1.84617.76267l-5.32001,5.30005c-.97003.97998-1.03001,2.53999-.11998,3.57997l5.20995,5.99005c.72003.82996.84003,2.01995.31,2.97998-1.18994,2.13-2.14997,4.40997-2.82995,6.81-.29998,1.04998-1.23005,1.79998-2.33002,1.86998l-7.91998.53999c-1.37.10003-2.44,1.23998-2.44,2.61998l-.01002,7.5c0,1.38002,1.06,2.52003,2.44,2.62l7.91998.56006c1.09003.06994,2.03003.81994,2.32002,1.87994.67998,2.39001,1.63,4.67004,2.82,6.81.52997.96003.40003,2.15003-.32,2.97003l-5.21997,5.99c-.90003,1.03997-.85005,2.60003.11999,3.58002l5.29998,5.31c.51338.50813,1.18613.76659,1.85972.76659.61222,0,1.22511-.21333,1.72031-.6466l5.98998-5.21002c.4861-.42168,1.09576-.63756,1.71033-.63756.43473,0,.8719.10799,1.26965.32756,2.13,1.19,4.41003,2.15003,6.81,2.83002,1.04998.29998,1.79998,1.22998,1.86998,2.33002l.54005,7.91998c.09997,1.37,1.23999,2.44,2.61998,2.44l7.5.01001c1.38002,0,2.51997-1.06,2.62-2.43999l.56-7.91999c.07-1.09003.82-2.03003,1.88-2.32001,2.38995-.67999,4.66998-1.63,6.81-2.82.39397-.21752.82685-.32391,1.25684-.32391.61773,0,1.22966.21938,1.71313.64391l5.99,5.21997c.49634.42953,1.1113.64273,1.72493.64273.67217,0,1.34278-.25562,1.85509-.76271l5.31-5.29999c.97003-.97999,1.03001-2.53999.11999-3.58003l-5.20995-5.98998c-.72003-.83002-.84003-2.02002-.31001-2.97999,1.18994-2.13,2.14997-4.41003,2.82996-6.81.29998-1.05005,1.23005-1.80005,2.33002-1.86998l7.91998-.54005c1.37-.09997,2.44-1.23999,2.44-2.61998l.01001-7.5c0-1.38002-1.06-2.52003-2.43999-2.62l-7.91999-.56c-1.09003-.07-2.03003-.82-2.32001-1.88-.67999-2.39001-1.63-4.66998-2.82-6.81-.52997-.96003-.40003-2.15003.32-2.96997l5.21997-5.99006c.90003-1.03997.85004-2.59997-.11998-3.56994l-5.29999-5.32001c-.51338-.50817-1.18612-.76663-1.85971-.76663-.61223,0-1.22512.21335-1.72032.64665l-5.98998,5.20995c-.4861.42172-1.09573.63761-1.7103.63761-.43474,0-.87193-.10801-1.26968-.32761-2.13-1.19-4.41003-2.14997-6.81-2.82995-1.04998-.30005-1.79998-1.23005-1.86998-2.33002l-.54005-7.91998c-.09997-1.37006-1.23999-2.44-2.61998-2.44l-7.5-.01002h0ZM50,67.5c-9.65997,0-17.5-7.84003-17.5-17.5s7.84003-17.5,17.5-17.5,17.5,7.83997,17.5,17.5-7.84003,17.5-17.5,17.5h0Z"/>
    </g>
  </g>
</svg>