<svg width="24" height="24" viewBox="0 0 24 24" fill="none" xmlns="http://www.w3.org/2000/svg">
<path fill-rule="evenodd" clip-rule="evenodd" d="M10 2.75C9.6685 2.75 9.35055 2.8817 9.11613 3.11612C8.88171 3.35054 8.75002 3.66848 8.75002 4V5.24998H15.25V4C15.25 3.66848 15.1183 3.35054 14.8839 3.11612C14.6495 2.8817 14.3315 2.75 14 2.75H10ZM16.75 5.24998V4C16.75 3.27065 16.4603 2.57118 15.9446 2.05546C15.4288 1.53973 14.7294 1.25 14 1.25H10C9.27067 1.25 8.5712 1.53973 8.05547 2.05546C7.53975 2.57118 7.25002 3.27065 7.25002 4V5.24999L3 5.24998C2.58579 5.24998 2.25 5.58577 2.25 5.99998C2.25 6.4142 2.58579 6.74998 3 6.74998H4.25L4.25002 20C4.25002 20.7293 4.53975 21.4288 5.05547 21.9445C5.5712 22.4603 6.27067 22.75 7.00002 22.75H17C17.7294 22.75 18.4288 22.4603 18.9446 21.9445C19.4603 21.4288 19.75 20.7293 19.75 20V6.74998H21C21.4142 6.74998 21.75 6.4142 21.75 5.99998C21.75 5.58577 21.4142 5.24998 21 5.24998H16.75ZM8.0045 6.74999C8.003 6.75 8.00151 6.75 8.00002 6.75C7.99852 6.75 7.99703 6.75 7.99553 6.74999L5.75 6.74998L5.75002 20C5.75002 20.3315 5.88171 20.6495 6.11613 20.8839C6.35055 21.1183 6.6685 21.25 7.00002 21.25H17C17.3315 21.25 17.6495 21.1183 17.8839 20.8839C18.1183 20.6495 18.25 20.3315 18.25 20V6.75L16.0024 6.75C16.0016 6.75 16.0008 6.75 16 6.75C15.9992 6.75 15.9985 6.75 15.9977 6.75L8.0045 6.74999Z" fill="currentColor"/>
</svg>
