<svg width="24" height="24" viewBox="0 0 24 24" fill="none" xmlns="http://www.w3.org/2000/svg">
<path fill-rule="evenodd" clip-rule="evenodd" d="M11 3.75C6.99594 3.75 3.75 6.99594 3.75 11C3.75 15.0041 6.99594 18.25 11 18.25C12.9607 18.25 14.7396 17.4717 16.0446 16.2072C16.067 16.1766 16.092 16.1473 16.1197 16.1197C16.1473 16.092 16.1766 16.067 16.2072 16.0446C17.4717 14.7396 18.25 12.9607 18.25 11C18.25 6.99594 15.0041 3.75 11 3.75ZM17.6949 16.6342C18.9773 15.112 19.75 13.1462 19.75 11C19.75 6.16751 15.8325 2.25 11 2.25C6.16751 2.25 2.25 6.16751 2.25 11C2.25 15.8325 6.16751 19.75 11 19.75C13.1462 19.75 15.112 18.9773 16.6342 17.6949L20.4697 21.5303C20.7626 21.8232 21.2375 21.8232 21.5303 21.5303C21.8232 21.2375 21.8232 20.7626 21.5303 20.4697L17.6949 16.6342ZM11 7.25002C11.4142 7.25002 11.75 7.5858 11.75 8.00002V10.25H14C14.4142 10.25 14.75 10.5858 14.75 11C14.75 11.4142 14.4142 11.75 14 11.75H11.75V14C11.75 14.4142 11.4142 14.75 11 14.75C10.5858 14.75 10.25 14.4142 10.25 14V11.75H8.00002C7.5858 11.75 7.25002 11.4142 7.25002 11C7.25002 10.5858 7.5858 10.25 8.00002 10.25H10.25V8.00002C10.25 7.5858 10.5858 7.25002 11 7.25002Z" fill="currentColor"/>
</svg>
