<?xml version="1.0" encoding="UTF-8"?>
<svg id="Layer_2" data-name="Layer 2" xmlns="http://www.w3.org/2000/svg" viewBox="0 0 329.75736 263.48712">
  <defs>
    <style>
      .cls-1 {
        fill: #fb4ec9;
      }

      .cls-2 {
        fill: #f4efef;
      }

      .cls-3 {
        fill: #70b3fe;
      }

      .cls-4 {
        fill: #0ed7fb;
      }

      .cls-5 {
        fill: none;
        stroke: #000;
        stroke-miterlimit: 10;
      }

      .cls-6 {
        fill: #fbfc13;
      }

      .cls-7 {
        fill: #ee707d;
      }
    </style>
  </defs>
  <g id="Character_Outline_" data-name="Character (Outline)">
    <g>
      <path class="cls-2" d="M291.83825,94.40737l4.98314,12.58971h-17.93374l4.98314-12.58971,3.35911-8.48105c.22209-.5691,1.02716-.5691,1.24925,0l3.35911,8.48105Z"/>
      <path class="cls-2" d="M297.22394,142.17042h1.38806v-10.96554c10.89624-5.49667,24.31885-10.42435,28.84385-7.02367,6.4823,7.39847-8.21729,12.29837-15.24088,14.14426-.70792.19452-1.12433.7635-1.19371,1.38806-.05558.51375.11107,1.05494.54136,1.44364,3.96983,3.60909,2.0543,6.91251.63845,8.50899-.30533.34702-.4303.80484-.36091,1.24912.02779.31923.16656.62456.3748.87448,4.16418,4.9692,1.30478,10.03565-.18045,12.03455-.12488.16656-.20816.34702-.24984.5273-.12496.45817-.04168.94396.22205,1.34655,5.34408,7.87036-4.34455,9.48039-11.0212,9.73032v.69403c-.80501.02762-1.61011.04151-2.37353.04151-.47198,0-.90227-.01389-1.29089-.02762-.02779,0-.06939,0-.09717.01372l-.51358-.1525c-.18045-.11115-.40259-.22214-.63854-.40259v-.88838c-1.42966-1.94332-1.80446-4.21959,0-7.70363v-2.04058c-2.62345-1.27708-3.44236-4.09471-.47189-9.53597-1.34646-.49968-2.58186-1.70729-2.98436-2.97047-.19435-.62456-.27763-1.2215-.27763-1.79048,0-2.31812,1.49913-4.20586,3.73389-5.74676"/>
      <polygon class="cls-4" points="292.32405 180.46713 291.97703 180.46713 283.38493 180.46713 279.16526 180.46713 279.16526 185.82503 288.36811 185.82503 296.54381 185.82503 296.54381 180.46713 292.32405 180.46713"/>
      <path class="cls-6" d="M296.71037,175.48387c-2.19316-2.40132-2.8733-5.14965.31923-10.13274-3.35908-1.05494-4.73325-3.87274-1.42966-9.92467-1.34646-.49968-2.58186-1.70729-2.98436-2.97047-.19435-.62456-.27763-1.2215-.27763-1.79048,0-2.69293,2.0127-4.81653,4.886-6.46841v-35.64547h-18.73882v30.57901c1.55462.01389,2.98428.19435,4.03922.3748.29152.05558.56915.06947.86059.06947.30542-.01389.61075-.04168.91617-.12505,0,0,6.70436,2.98436,6.70436,7.55097,0,1.23556-.48587,2.58194-1.72127,4.01168-1.47134,1.72118-3.71999,2.47079-5.89926,2.1375-.47189-.0693-.95777-.19435-1.41576-.36074-1.30478-.49985-2.49858-1.09662-3.48405-1.66577v27.95556h18.73882v-3.63671c-.16656,0-.34702.01372-.51358.04151"/>
      <path class="cls-1" d="M288.36811,185.82503h-9.20285v5.84368c0,1.77676,1.34638,3.2758,3.16482,3.72008.34702.08336.70784.12488,1.08264.12488h8.88362c2.34583,0,4.24746-1.72118,4.24746-3.84495v-5.84368h-8.1757Z"/>
      <path class="cls-2" d="M291.00546,147.00085c0,1.23556-.48587,2.58194-1.72127,4.01168-1.47134,1.72118-3.71999,2.47079-5.89926,2.1375-.38861-.05541-.7912-.16656-1.17982-.29144-.08328-.01389-.15267-.04168-.23595-.0693-1.30478-.49985-2.49858-1.09662-3.48405-1.66577v3.48405h-1.38806v25.85957h.68014v11.20157c0,2.29033,1.5963,4.24755,3.80327,4.94158-1.41585,2.35964-2.81772,4.73333-4.20578,7.12076-20.30733,34.89569-57.32697,2.31795-57.32697,2.31795-2.69284-11.4515-5.82979-24.27717-9.4249-38.21335l36.06179,17.4897c2.23484,1.05494,4.89989.51358,6.55169-1.31859l16.3791-20.73771c.87448-1.11035,1.08273-2.60956.56915-3.92815-1.94332-4.96937-2.65124-8.74485-2.48468-11.60434,0-.1525.01389-.29144.02779-.41632.0416-.58305.12488-1.13814.24984-1.63799.05549-.23586.11107-.458.18045-.68014.08328-.29144.19435-.56898.30533-.8328.09717-.23603.20824-.458.33321-.66624.11098-.20824.23595-.40259.36082-.59694.01389-.02779.02779-.04168.04168-.06947.12488-.18029.26373-.34702.40251-.51341.13886-.16673.29152-.33312.45808-.49985.23595-.23586.48579-.458.74952-.65235,0,0,0-.01389.01389-.01389.26373-.19418.54136-.3748.81899-.54119.19426-.11115.38861-.22214.59686-.3055.59686-.27754,1.23539-.49968,1.87385-.68014v-.01389c.97166-.26365,1.98492-.40242,2.98436-.458.47189-.02779.92998-.02779,1.38806-.02779,1.38806.01389,2.69284.16656,3.71999.31923.11107.02779.22205.04168.31923.05558.29152.05558.56915.06947.86059.06947.30542,0,.62464-.04168.91617-.12505,0,0,1.88774.84687,3.6645,2.31812.20816.18045.4164.36091.62456.55526l.29152.29144c.15267.15267.29152.30533.4303.45817.15267.1525.27763.31923.40251.48562.12496.16673.24993.34702.36091.51375.23603.3748.44419.76333.58305,1.16592.06939.16656.13877.34702.18037.52747.05558.20807.09717.40259.12496.61067.02779.20824.04168.41649.04168.62456Z"/>
      <path class="cls-2" d="M201.50327,91.77005c0,6.4406-2.90105,12.21493-7.46777,16.07374-2.62343-8.92523-5.41344-18.08643-8.32836-27.4142-1.06881-3.40075-2.48463-6.67657-4.23358-9.74419,11.14613.5691,20.02971,9.79971,20.02971,21.08464Z"/>
      <path class="cls-2" d="M180.39087,112.86857c-11.64583,0-21.1124-9.46657-21.1124-21.09852,0-11.64583,9.46657-21.1124,21.1124-21.1124.3609,0,.72179.01388,1.08269.02776,1.74896,3.06761,3.16478,6.34344,4.23358,9.74419,2.91493,9.32777,5.70493,18.48897,8.32836,27.4142-3.67836,3.13702-8.43941,5.02478-13.64464,5.02478Z"/>
      <polygon class="cls-3" points="128.65786 5.23836 141.20592 18.75807 136.30607 32.34718 124.31323 16.28732 128.65786 5.23836"/>
      <path d="M139.26264,148.25024s-2.91493-2.80388-14.89389-.23597c-1.45746.31925-2.69284.95776-3.76164,1.86-2.74836-4.33075-4.53896-9.39717-4.98314-14.92165-.09716-1.24925.8606-2.34582,2.13761-2.3597,11.85404-.15269,24.45763-.77731,37.7136-2.02657,6.74597-.63851,13.29762-1.40194,19.6133-2.26254,1.24925-.16657,2.37358.74955,2.47075,1.99881,1.04105,13.89449-6.70433,26.40091-17.83658,31.88375-4.1503-8.67538-11.24329-15.54628-20.46001-13.93613Z"/>
      <path class="cls-1" d="M139.26267,148.2503s-2.91498-2.80391-14.89395-.23603c-1.45745.31923-2.69284.95785-3.76159,1.85995,6.12131,9.772,17.03145,15.85171,28.16372,15.21309.72182-.02779,1.44355-.09709,2.16537-.19418,3.08154-.41649,6.03803-1.34638,8.78645-2.70682-4.15029-8.67538-11.24334-15.54621-20.46-13.93601Z"/>
      <path class="cls-2" d="M116.40128,77.97273c11.64583,0,21.1124,9.46657,21.1124,21.1124s-9.46657,21.1124-21.1124,21.1124-21.1124-9.46657-21.1124-21.1124,9.46657-21.1124,21.1124-21.1124Z"/>
      <path class="cls-3" d="M109.47486,60.85794c-6.27403,5.12194-12.9506,12.07613-17.35076,21.58434-2.83164,4.12254-4.63612,8.98075-5.05254,14.2415-6.71821,2.09597-13.43643,4.19194-20.15464,6.30179-1.49911.47194-3.20642.94388-4.91373,1.52687,1.90164-8.77254,4.13642-16.74001,6.74597-23.48598,2.8594-7.38448,7.66209-13.72792,13.79732-18.46121,4.52508-.5691,9.21672-1.24925,14.01941-2.04045,5.80209-.95776,11.79851-2.06821,17.97538-3.37299-1.74896,1.13821-3.44239,2.37358-5.06642,3.70612Z"/>
      <polygon class="cls-3" points="108.03128 22.72792 105.49112 33.37434 92.84589 24.51852 94.4838 10.69344 108.03128 22.72792"/>
      <path class="cls-2" d="M148.71533,48.39316c6.52388.80508,12.96449,3.10926,18.96091,7.19015,2.99821,2.04045,5.70493,4.44179,8.07851,7.12075-13.79732,2.16537-24.41598,13.93613-24.77688,28.27479l-6.16299.37478c-3.40075-12.50643-14.83837-21.70927-28.4136-21.70927-10.07732,0-18.97479,5.06642-24.27718,12.79792,4.40015-9.50821,11.07672-16.4624,17.35076-21.58434,1.62403-1.33254,3.31746-2.56791,5.06642-3.70612.63851-.12493,1.27702-.26373,1.91552-.40254,11.57642-2.48463,22.34777-5.34403,32.25853-8.35612Z"/>
      <path class="cls-2" d="M148.71536,48.39314c2.17927-.65235,4.33074-1.31876,6.42673-1.985l-7.87036-44.47334-6.06582,16.82329-4.89981,13.58917-11.99286-16.05996-11.17387-14.97723-5.10805,21.41785-2.54017,10.64649-12.64521-8.856-1.83225-1.27691-.13886,2.63735-.90219,17.42006c.11107,3.80327.86059,8.68927,3.52564,13.18658.55526.94396,1.1799,1.87402,1.91553,2.76223.3748.44427.76342.87465,1.15211,1.27708,5.80208-.95785,11.79851-2.0682,17.9754-3.37306M114.54131,57.15171c.63845-.12488,1.27699-.26365,1.91553-.40242,11.57638-2.48468,22.34774-5.344,32.25851-8.35615"/>
      <polygon class="cls-7" points="81.90798 16.41224 90.87485 25.87882 89.97261 43.29898 80.75589 35.34539 81.90798 16.41224"/>
      <path class="cls-3" d="M95.4138,59.2477c-.73563-.88821-1.36027-1.81827-1.91553-2.76223-2.66505-4.4973-3.41457-9.3833-3.52564-13.18658l-9.21674-7.95356-16.42078-14.17204,13.43642,41.98883c1.56852-.18045,3.16482-.3748,4.77493-.59677,4.52509-.56932,9.21674-1.24946,14.01946-2.04058-.3887-.40242-.77731-.8328-1.15211-1.27708Z"/>
      <path class="cls-2" d="M120.6071,149.87427c6.12135,9.77195,17.0315,15.85165,28.16375,15.21314.72179-.02776,1.44358-.09716,2.16537-.19433,3.08149-.41642,6.03806-1.34642,8.78642-2.70672,11.13225-5.48284,18.87762-17.98926,17.83658-31.88375-.09716-1.24925-1.22149-2.16537-2.47075-1.99881-6.31568.8606-12.86732,1.62403-19.6133,2.26254-13.25598,1.24925-25.85957,1.87388-37.7136,2.02657-1.27702.01388-2.23478,1.11045-2.13761,2.3597.44418,5.52448,2.23478,10.5909,4.98314,14.92165ZM196.53402,116.38037c5.30239,18.30852,9.99404,35.60375,14.08881,51.4554,3.59508,13.93613,6.73209,26.76181,9.42493,38.21331,7.02359,29.81554,11.00732,50.31719,12.21493,56.74392H86.80783c-.62463-41.30868-1.49911-120.74739.16657-155.75427l.9994-.31925c3.34523,12.56195,14.81061,21.80643,28.42748,21.80643,15.6712,0,28.483-12.25657,29.38524-27.69181l6.46836-.38866c3.70612,12.0206,14.90777,20.75151,28.13599,20.75151,5.96866,0,11.50702-1.76284,16.14314-4.81657Z"/>
      <path class="cls-3" d="M86.80783,262.79299h-33.25793c-.84672-.68015-1.74896-1.45746-2.70672-2.31806-.0694-5.95478-.20821-22.80583.37478-44.40406l18.48897-19.34956c2.42911-2.52627,3.99761-5.77433,4.40015-9.27224.37478-3.23418.23597-7.38448-1.51299-11.75687-1.17985-2.97045-2.81776-5.30239-4.37239-7.06523-1.99881-2.24866-5.37179-2.60955-7.8703-.95776-2.42911,1.59627-4.78881,3.19254-7.07911,4.80269,1.09657-15.75449,2.67896-31.88375,4.91373-46.8748,1.49911-.09716,2.84552-.74955,3.83105-1.73508,1.08269-1.09657,1.76284-2.59567,1.76284-4.24747v-2.67896c0-.19433.01388-.38866.04164-.58299.22209-1.33254,1.17985-2.44299,2.49851-2.8594l20.65434-6.45448c-1.66567,35.00689-.79119,114.44559-.16657,155.75427Z"/>
      <path class="cls-1" d="M180.39091,62.32915c-1.58241,0-3.12305.12505-4.63607.3748h-.00008c-13.79733,2.16546-24.41602,13.93618-24.77685,28.27496l-6.16299.3748c-3.40077-12.50644-14.83837-21.70946-28.41364-21.70946-10.07733,0-18.97476,5.06662-24.27717,12.79805-2.83161,4.1225-4.63616,8.98071-5.05256,14.24135-6.71817,2.09598-13.43642,4.19197-20.15458,6.30185-1.49913.47206-3.20642.94396-4.91379,1.527-5.09416,1.74897-10.24389,4.40004-10.24389,10.31319v4.78874c0,3.31765,2.69284,5.99652,6.01033,5.99652.13877,0,.27763,0,.4164-.01389,1.49913-.09726,2.84551-.74961,3.83106-1.73508,1.08273-1.09662,1.76286-2.59567,1.76286-4.24755v-2.67886c0-.19435.01389-.3887.0416-.58288.22214-1.33265,1.1799-2.443,2.49849-2.85949l20.65435-6.45452.99945-.31923c3.34519,12.56185,14.81058,21.80638,28.42745,21.80638,15.67126,0,28.48303-12.25651,29.38522-27.69174l6.46841-.3887c3.7061,12.02065,14.90776,20.75161,28.13601,20.75161,5.96864,0,11.50699-1.76286,16.14307-4.8167,8.00914-5.26063,13.29764-14.31082,13.29764-24.61029,0-16.26803-13.18658-29.44088-29.44071-29.44088ZM116.40127,120.19748c-11.64585,0-21.11235-9.4665-21.11235-21.11235s9.4665-21.11252,21.11235-21.11252,21.11243,9.46667,21.11243,21.11252-9.46658,21.11235-21.11243,21.11235ZM194.03548,107.84371h0c-3.67831,3.13703-8.43935,5.02494-13.64457,5.02494-11.64585,0-21.11243-9.46667-21.11243-21.09862,0-11.64585,9.46658-21.11252,21.11243-21.11252.36082,0,.72165.01389,1.08256.02779h.00008c11.14617.56915,20.0297,9.79979,20.0297,21.08473,0,6.44062-2.901,12.21483-7.46777,16.07368Z"/>
      <path class="cls-2" d="M74.1071,187.44912c-.40259,3.49794-1.97111,6.74578-4.40021,9.27215l-18.48889,19.34948-13.0894,13.70032c-2.47079,2.58177-3.22031,6.35726-1.88783,9.66085,1.36036,3.37289,3.27589,7.23174,6.02422,11.20174.55526.80501,1.11043,1.56835,1.66569,2.30406.27754.34702.54128.68014.80501,1.01326.27763.34702.55526.69403.83289,1.01326.12488.15284.24984.30533.37472.44427.23603.29144.48587.56898.73571.8467.73563.8328,1.45745,1.5963,2.16537,2.30423.68014.68014,1.34638,1.31859,1.99881,1.91536.95777.86076,1.85995,1.63799,2.70674,2.31829H15.54483c-2.8733-2.7485-7.07907-7.41237-10.41045-14.18611,0,0-3.30359-6.71817-4.5112-14.13053-.77731-4.80264,2.13758-12.08995,8.36996-20.76533.3748-.52747.7635-1.05494,1.16601-1.59613,9.88298-13.15896,27.03939-29.20485,50.19223-44.44573,2.49849-1.65188,5.87155-1.29097,7.87036.95768,1.55462,1.76286,3.19252,4.09471,4.37234,7.06535,1.74897,4.37226,1.88774,8.52254,1.51302,11.75683Z"/>
      <path d="M187.93218,92.5533c-.25764,0-.51705-.08155-.73687-.25055l-10.94366-8.4122c-.53005-.40773-.62932-1.16764-.22218-1.69709.40773-.53064,1.16705-.62991,1.69709-.22218l10.94366,8.4122c.53005.40773.62932,1.16764.22218,1.69709-.23873.30964-.59741.47273-.96023.47273Z"/>
      <path d="M187.01745,105.53442c-.25764,0-.51705-.08155-.73687-.25055l-10.94366-8.4122c-.53005-.40773-.62932-1.16764-.22218-1.69709.40773-.53064,1.16705-.62991,1.69709-.22218l10.94366,8.4122c.53005.40773.62932,1.16764.22218,1.69709-.23873.30964-.59741.47273-.96023.47273Z"/>
      <path d="M188.13722,99.9645c-.25764,0-.51705-.08155-.73687-.25055l-15.0558-11.57357c-.53005-.40773-.62932-1.16764-.22218-1.69709.40773-.52946,1.16646-.62991,1.69709-.22218l15.0558,11.57357c.53005.40773.62932,1.16764.22218,1.69709-.23873.30964-.59741.47273-.96023.47273Z"/>
      <path d="M126.372,97.42819c-.25764,0-.51705-.08155-.73687-.25055l-10.94366-8.4122c-.53005-.40773-.62932-1.16764-.22218-1.69709.40773-.53064,1.16705-.62991,1.69709-.22218l10.94366,8.4122c.53005.40773.62932,1.16764.22218,1.69709-.23873.30964-.59741.47273-.96023.47273Z"/>
      <path d="M125.45727,110.4093c-.25764,0-.51705-.08155-.73687-.25055l-10.94366-8.4122c-.53005-.40773-.62932-1.16764-.22218-1.69709.40773-.53064,1.16705-.62991,1.69709-.22218l10.94366,8.4122c.53005.40773.62932,1.16764.22218,1.69709-.23873.30964-.59741.47273-.96023.47273Z"/>
      <path d="M126.57704,104.83938c-.25764,0-.51705-.08155-.73687-.25055l-15.0558-11.57357c-.53005-.40773-.62932-1.16764-.22218-1.69709.40773-.52946,1.16646-.62991,1.69709-.22218l15.0558,11.57357c.53005.40773.62932,1.16764.22218,1.69709-.23873.30964-.59741.47273-.96023.47273Z"/>
      <rect x="291.63002" y="106.99718" width="1.38806" height="73.46961"/>
      <rect x="282.6909" y="106.99701" width="1.38806" height="32.57791"/>
      <polyline class="cls-5" points="283.38496 153.15009 283.38496 179.07906 283.38496 180.46712"/>
      <line class="cls-5" x1="297.22393" y1="185.82503" x2="278.48511" y2="185.82503"/>
      <path d="M293.33739,94.40738h-10.96571l4.59448-11.57655c.31923-.81891,1.45745-.81891,1.77676,0l4.59448,11.57655Z"/>
      <g>
        <path d="M297.22394,179.07907h-18.73882v-27.95556c-.51358-.3055-.98555-.59694-1.38806-.86059v29.51018c0,.3887.29144.68014.68014.69403v11.20157c0,2.05447,1.27699,3.84495,3.13703,4.69165.20816.09726.4303.18045.66624.24993.22214.0832.45808.13877.69403.18045.3748.06947.74961.11098,1.13822.11098h8.88362c3.10924,0,5.63552-2.34591,5.63552-5.23302v-11.20157c.38861-.01389.68014-.30533.68014-.69403v-4.99715c-.45808,0-.92998-.01389-1.38806-.02762v4.33074ZM296.54381,191.66871c0,2.12377-1.90164,3.84495-4.24746,3.84495h-8.88362c-.11107,0-.22205,0-.33312-.01389-.26373-.01389-.49968-.05541-.74952-.11098-.23603-.05558-.45808-.12505-.68022-.20824-1.45745-.62473-2.4846-1.95721-2.4846-3.51183v-11.20157h17.37855v11.20157Z"/>
        <path d="M297.22394,156.39804c.4303-.02779.90219-.0832,1.38806-.16639v-1.40195c-.49968.0832-.95777.13877-1.38806.16639v1.40195Z"/>
        <path d="M298.33437,106.99701l-4.99698-12.58963-4.59448-11.57655c-.31931-.81891-1.45753-.81891-1.77676,0l-4.59448,11.57655-4.99698,12.58963-.27763.70792v31.4535c.18045-.01389.34702-.01389.51358-.01389.29152-.01389.58296-.01389.87448-.01389v-30.57901h18.73882v36.46438c.4303-.26365.88838-.52747,1.38806-.7774v-36.53368l-.27763-.70792ZM278.88763,106.99701l4.98317-12.58963,3.35908-8.4812c.22205-.56898,1.02715-.56898,1.24929,0l3.35908,8.4812,4.98309,12.58963h-17.93372Z"/>
        <path d="M297.22394,164.68489v1.6795c.0416-.0693.08328-.13877.12488-.20824.40259.09726.81899.18045,1.26318.23603v-1.38806c-.48587-.0832-.94387-.18045-1.37417-.31923h-.01389Z"/>
      </g>
      <path d="M282.33008,195.38878c-.23603-.05558-.45808-.12505-.68022-.20824-.22205.34702-.44419.70792-.66624,1.06883-.02779.04151-.0416.0693-.06939.11098-1.38806,2.31812-2.77612,4.67776-4.13639,7.02367-5.19142,8.92513-11.96516,14.11647-20.11307,15.44895-17.54502,2.84559-35.97851-13.14489-36.15896-13.29739l-.91608,1.04105c.70792.61067,16.10147,13.99142,32.66102,13.99142,1.54073,0,3.08154-.12471,4.62227-.37463,8.5921-1.38806,15.68507-6.81542,21.09854-16.11536,1.38806-2.38742,2.79002-4.76112,4.20578-7.10703.02779-.05541.06939-.12471.09717-.18029.19435-.33312.40259-.65235.65243-1.04105.05549-.08336.09717-.16673.15267-.24993-.26373-.01389-.49968-.05541-.74952-.11098ZM327.95486,123.7559c-.4073-.35942-.874-.6495-1.39002-.84428-1.89013-.71348-4.00877-.63898-5.98114-.39021-5.21058.65721-10.27474,2.62348-15.06988,4.68599-2.33234,1.0032-4.63275,2.08116-6.90182,3.22008-.09717.05558-.20824.09726-.30542.15284-.37472.19418-.73563.37463-1.08264.56898v1.55462c.11107-.05541.22205-.11098.33312-.16656.34702-.19435.69403-.3748,1.05494-.55526.09717-.05541.20816-.09709.30535-.15268,5.84765-2.95003,11.97637-5.68535,18.3565-7.25431,1.92157-.47254,3.90848-.85327,5.89499-.84021,1.22453.00805,2.65042.09895,3.66339.86943,1.19182.90652,1.82241,2.75918,1.38713,4.18534-.97166,3.17871-6.87092,6.41266-16.18483,8.86956-.74952.19452-1.30478.73571-1.56852,1.45753-3.85876.74961-8.27279,1.88774-11.85401,3.5813-.48587.22197-.94387.4441-1.38806.69403-.40259.22197-.7912.4441-1.15211.69403-1.51294.97157-2.74833,2.09598-3.51175,3.37289-.97166,1.6102-1.1799,3.359-.61075,5.20523.38861,1.26318,1.45745,2.41521,2.70665,3.09535-1.59622,3.12314-2.02651,5.55224-1.29089,7.38458.45808,1.13814,1.36036,1.97094,2.66514,2.54009-1.55462,2.60956-2.12377,4.8028-1.72127,6.75985.12496.58288.34702,1.6795,1.23539,2.67886.18045.20841.36091.36091.52747.47206.23595.18045.45808.29144.63854.40259l.51358.1525c.02779-.01372.06939-.01372.09717-.01372.38861.01372.81891.02762,1.29089.02762.76342,0,1.56852-.01389,2.37353-.04151,5.3024-.20824,11.06289-1.16592,12.77017-4.35853.93006-1.76286.54136-3.92832-1.16592-6.45452-.22214-.33312-.22214-.76333,0-1.06866,1.55462-2.08209,4.66386-7.50962.15267-12.89514-.29152-.36091-.30542-.88838-.02779-1.22167,1.31867-1.47126,3.85885-5.34383-.68014-9.48022-.27763-.24993-.38861-.61083-.30533-.97174.0416-.16656.18045-.55526.66624-.68014,5.74658-1.51294,15.61564-4.7889,17.1564-9.79959.58283-1.89541-.11251-4.12644-1.59697-5.43639ZM297.22394,145.01601c.4303-.26365.88838-.52747,1.38806-.7774,2.91489-1.47126,6.91251-2.72054,11.79851-3.69212.11107.41649.34702.81891.68014,1.12441,3.33138,3.02588,2.16537,5.76032.59686,7.53707-.31923.36091-.47189.79129-.52747,1.24929-4.95539,2.29033-9.39711,3.83089-12.54804,4.37242-.49968.0832-.95777.13877-1.38806.16639-.04168.01389-.08328.01389-.12496.01389-1.45745.12505-3.35908-1.26301-3.81717-2.76223-.458-1.47126-.30533-2.80391.47198-4.06692.68014-1.12441,1.84614-2.19324,3.47015-3.16482ZM311.47935,163.42171c-.08336.09726-.12496.22214-.18045.33312-3.96992.94379-9.09186,1.83233-12.68689,1.24929-.48587-.0832-.94387-.18045-1.37417-.31923h-.01389c-1.33257-.41649-2.17927-1.09662-2.56796-2.05447-.58296-1.44347-.13877-3.59486,1.29097-6.37098.33312.0832.68014.1386.99936.1386h.27763c.4303-.02779.90219-.0832,1.38806-.16639,3.24801-.51375,7.73151-2.02668,12.85345-4.38632.06939.13877.12488.27754.22205.38853,3.87266,4.62235,1.13822,9.35551-.20816,11.18785ZM298.87574,174.77595h-.26373c-.45808,0-.92998-.01389-1.38806-.02762h-.04168c-.06939,0-.13877,0-.19426-.02779-.19435-.05558-.30542-.36091-.41649-.51358-.13877-.18045-.26373-.3887-.37472-.59677-.23603-.40259-.41649-.83297-.51358-1.29097-.26373-1.06883-.09717-2.17918.23595-3.2065.31923-.97157.7912-1.88774,1.30478-2.74833.0416-.0693.08328-.13877.12488-.20824.40259.09726.81899.18045,1.26318.23603.8051.12488,1.66569.18045,2.56788.18045,3.20642,0,6.84313-.65235,9.92467-1.36027.05549.30533.15267.61067.33312.87432,1.40195,2.06837,1.76286,3.74787,1.09654,5.02494-1.2492,2.33185-6.21848,3.66433-13.65847,3.66433ZM287.18829,140.26895c-.40259-.27771-.83289-.54153-1.26318-.7774l-1.84614-.61067v-.09726c-.22205.06947-.47189.09726-.72173.09726-.20824,0-.41649-.01389-.66633-.05558-.0277,0-.06939,0-.11098-.01389-.05558,0-.12496-.01389-.27763-.04168-1.38806-.20807-2.63735-.31923-3.81717-.33312-.45808,0-.91617,0-1.38806.02779h-.04168c-1.12433.06947-2.17927.22197-3.10924.48579-.95777.23603-1.84614.59694-2.65116,1.05494-.61075.36091-1.1938.80501-1.67958,1.29097-.23595.18029-.4164.41632-.52747.55509-.16656.19435-.31923.3887-.48579.62473l-.02779.04151c-.13877.20841-.26373.41649-.3748.62473-.13877.23603-.26373.49968-.37472.76333-.12496.27771-.24984.58305-.33312.88855-.06947.23586-.12496.47172-.18045.72165-.13886.52747-.23603,1.12441-.27763,1.73508-.01389.13877-.02779.3055-.02779.4441-.18045,3.13703.66624,7.13482,2.52628,11.89577.4303,1.09662.24984,2.34574-.45808,3.24818l-16.35131,20.69586c-1.44364,1.6102-3.80327,2.08209-5.7327,1.16609l-36.06179-17.4897-.61075,1.24929,36.07568,17.48953c2.4846,1.17999,5.51056.56915,7.38449-1.51294l16.3791-20.73771c1.02715-1.2908,1.27699-3.05367.68014-4.60829-1.79057-4.5805-2.60956-8.38377-2.443-11.35441,0-.12488.01389-.23586.02779-.36091.0416-.55509.11107-1.06883.23595-1.54056.04168-.20841.09717-.41649.16656-.63862.06939-.26382.18045-.51358.27763-.76333.08328-.20841.18045-.3887.30533-.61083.09717-.16656.18045-.34702.36091-.59694.11107-.1525.20824-.29144.3887-.47189.08328-.12488.22205-.29144.38861-.4441.44419-.43038.93006-.80518,1.44364-1.09662.69403-.40259,1.47134-.70792,2.30414-.92989.8467-.22231,1.80446-.3748,2.84551-.43038.15275-.01389.31931-.01389.47198-.01389.29152-.01389.58296-.01389.86059-.01389,1.11043.01389,2.30414.11115,3.56733.29144.12488.04168.24984.05558.36091.06947.26373.05558.49968.08336.72173.08336.16656.01389.31931.01389.45808,0,.23595-.01389.4303-.04168.62464-.08336.05549.02779.09717.05558.15267.08336,1.05494.55509,2.10988,1.22133,3.02596,1.98483,1.44364,1.24929,2.76223,2.70665,2.8594,4.70555-.09717,3.78938-4.37234,6.59329-7.92577,5.23302-1.62409-.54136-3.26199-1.49904-4.80272-2.29033-.54136-.29144-1.08264-.58288-1.67958-.8328-.08328-.04168-.18045-.02779-.24984.04151-.09717.08336-.11098.23603-.0277.33312.47189.54153.98547,1.01343,1.54073,1.44364.44419.34702.90219.66624,1.38806.95785.55517.33312,1.13822.63845,1.72118.91617,2.65116,1.47126,6.48222,1.76286,9.06408-.66624,4.63607-4.46968,2.10979-8.99477-2.08209-11.8263Z"/>
      <path class="cls-5" d="M74.1071,187.44912c-.40259,3.49794-1.97111,6.74578-4.40021,9.27215l-18.48889,19.34948-13.0894,13.70032c-2.47079,2.58177-3.22031,6.35726-1.88783,9.66085,1.36036,3.37289,3.27589,7.23174,6.02422,11.20174.55526.80501,1.11043,1.56835,1.66569,2.30406.27754.34702.54128.68014.80501,1.01326.27763.34702.55526.69403.83289,1.01326.12488.15284.24984.30533.37472.44427.23603.29144.48587.56898.73571.8467.73563.8328,1.45745,1.5963,2.16537,2.30423.68014.68014,1.34638,1.31859,1.99881,1.91536.95777.86076,1.85995,1.63799,2.70674,2.31829H15.54483c-2.8733-2.7485-7.07907-7.41237-10.41045-14.18611,0,0-3.30359-6.71817-4.5112-14.13053-.77731-4.80264,2.13758-12.08995,8.36996-20.76533.3748-.52747.7635-1.05494,1.16601-1.59613,9.88298-13.15896,27.03939-29.20485,50.19223-44.44573,2.49849-1.65188,5.87155-1.29097,7.87036.95768,1.55462,1.76286,3.19252,4.09471,4.37234,7.06535,1.74897,4.37226,1.88774,8.52254,1.51302,11.75683Z"/>
      <polyline class="cls-5" points="124.41997 16.41368 128.65899 5.24384 140.97003 19.4227"/>
      <polyline class="cls-5" points="92.84499 24.52243 94.4791 10.6919 108.03261 22.73186"/>
      <polyline class="cls-5" points="80.75505 35.34528 81.91116 16.41368 90.87643 25.87948"/>
      <path class="cls-5" d="M77.77418,63.16145c11.89437-1.38959,24.86362-3.43457,38.68073-6.41232,14.13211-3.0457,27.05845-6.61599,38.68073-10.34234l-7.86026-44.47252-10.96299,30.40678L113.14533,1.31371l-7.65341,32.06157-14.47942-10.13559-1.03424,20.06434-25.64925-22.13282,13.44517,41.99025Z"/>
      <path class="cls-5" d="M148.77085,165.08741c-2.52627-8.93911-9.50821-16.83717-9.50821-16.83717"/>
      <path class="cls-5" d="M120.6071,149.87427c1.06881-.90224,2.30418-1.54075,3.76164-1.86,11.97896-2.56791,14.89389.23597,14.89389.23597,9.21672-1.61015,16.30971,5.26075,20.46001,13.93613"/>
      <path class="cls-5" d="M175.09329,128.30163c1.2445-.17057,2.36584.74652,2.46046,1.99909,1.30965,17.33535-11.07141,32.49347-26.62365,34.59433-16.79981,2.26929-33.78575-11.17252-35.30362-29.93564-.10209-1.26203.86382-2.35161,2.12986-2.36828,11.86228-.15621,24.46794-.77288,37.7202-2.02173,6.75105-.63621,13.2931-1.40106,19.61674-2.26777Z"/>
      <path class="cls-5" d="M180.39133,112.87475c-11.6406,0-21.11099-9.46972-21.11099-21.11099s9.4704-21.11099,21.11099-21.11099c11.64127,0,21.11167,9.46972,21.11167,21.11099s-9.4704,21.11099-21.11167,21.11099Z"/>
      <path class="cls-5" d="M61.98931,104.51245c1.91552-8.77254,4.1503-16.74001,6.75985-23.48598,2.8594-7.38448,7.66209-13.72792,13.79732-18.46121"/>
      <path class="cls-5" d="M58.18602,125.59709c-2.23478,14.99105-3.81717,31.12032-4.91373,46.8748"/>
      <path class="cls-5" d="M51.21796,216.07087c-.51358,18.79434-.47194,33.9936-.40254,41.54465.01388,1.12433.01388,2.08209.02776,2.8594"/>
      <path d="M232.84569,262.09906c-2.76223-14.44993-14.32479-72.2903-35.64538-145.91309l-1.33257.3887c21.16792,73.12293,32.7166,130.65815,35.5621,145.52439H50.88479v1.38806h182.22463c-.06939-.40259-.16656-.87465-.26373-1.38806Z"/>
      <path class="cls-5" d="M148.71533,48.39316c6.52388.80508,12.96449,3.10926,18.96091,7.19015,2.99821,2.04045,5.70493,4.44179,8.07851,7.12075"/>
      <path class="cls-5" d="M92.1241,82.44228c4.40015-9.50821,11.07672-16.4624,17.35076-21.58434,1.62403-1.33254,3.31746-2.56791,5.06642-3.70612"/>
      <path class="cls-5" d="M86.80783,262.79299c-.62463-41.30868-1.49911-120.74739.16657-155.75427"/>
      <path class="cls-5" d="M116.40296,120.19596c-11.6406,0-21.11099-9.46972-21.11099-21.11099s9.4704-21.11099,21.11099-21.11099,21.11099,9.46972,21.11099,21.11099-9.4704,21.11099-21.11099,21.11099Z"/>
      <path class="cls-5" d="M209.83162,91.77003c0,16.2543-13.18658,29.42699-29.44071,29.42699-13.22826,0-24.42992-8.73096-28.13601-20.75161l-6.46841.3887c-.90219,15.43523-13.71396,27.69174-29.38522,27.69174-13.61687,0-25.08226-9.24453-28.42745-21.80638l-21.6538,6.77374c-1.51294.47189-2.54009,1.85995-2.54009,3.44236v2.67886c0,1.65188-.68014,3.15092-1.76286,4.24755-1.08264,1.08273-2.58177,1.74897-4.24746,1.74897-3.31749,0-6.01033-2.67886-6.01033-5.99652v-4.78874c0-7.89798,9.21674-9.99397,15.15768-11.8402,6.71817-2.10988,13.43642-4.20586,20.15458-6.30185,1.20761-15.12972,13.88061-27.03939,29.32973-27.03939,13.57527,0,25.01288,9.20302,28.41364,21.70946l6.16299-.3748c.40251-15.90729,13.42252-28.64976,29.41301-28.64976,16.25413,0,29.44071,13.17285,29.44071,29.44088Z"/>
    </g>
  </g>
</svg>