<?xml version="1.0" encoding="UTF-8"?>
<svg id="Layer_2" data-name="Layer 2" xmlns="http://www.w3.org/2000/svg" xmlns:xlink="http://www.w3.org/1999/xlink" viewBox="0 0 176.00001 88.00005">
  <defs>
    <style>
      .cls-1 {
        fill: none;
      }

      .cls-2 {
        fill: #fffb6c;
      }

      .cls-3 {
        fill: #5bf672;
      }

      .cls-4 {
        fill: url(#New_Pattern);
      }
    </style>
    <pattern id="New_Pattern" data-name="New Pattern" x="0" y="0" width="40" height="40" patternTransform="translate(-190.04031 -1314.36084)" patternUnits="userSpaceOnUse" viewBox="0 0 40 40">
      <g>
        <rect class="cls-1" width="40" height="40"/>
        <rect class="cls-2" x="18.06453" y="-.00005" width="21.93548" height="21.93548"/>
        <rect class="cls-2" x=".00002" y="18.1935" width="21.80645" height="21.80645"/>
        <rect class="cls-3" x=".00002" y="-.00005" width="20" height="20"/>
        <rect class="cls-3" x="20.00002" y="19.99995" width="20" height="20"/>
      </g>
    </pattern>
  </defs>
  <g id="Design">
    <g>
      <path d="M158.97267,5.95952c-.01373-.00659-.02704-.01379-.04071-.02039-.013-.00623-.02576-.01318-.03876-.01941-.01373-.00659-.02704-.01367-.04071-.02026-.013-.00635-.02576-.01318-.03876-.01953-.01373-.00659-.02704-.01367-.04071-.02026-.013-.00635-.02576-.01318-.03876-.01941-.01373-.00659-.02704-.01379-.04071-.02039-.013-.00623-.02576-.01318-.03876-.01929-.01373-.00659-.02704-.01379-.04071-.02039-.013-.00623-.02576-.01318-.03876-.01941-.01373-.00659-.02704-.01367-.04071-.02026-.013-.00635-.02576-.01318-.03876-.01953-.01373-.00659-.02704-.01367-.04071-.02026-.013-.00635-.02576-.01318-.03876-.01941-.01373-.00659-.02704-.01379-.04071-.02039-.013-.00623-.02576-.01318-.03876-.01929-.01373-.00659-.02704-.01379-.04071-.02039-.013-.00623-.02576-.01318-.03876-.01941-.01373-.00659-.02704-.01367-.04071-.02026-.013-.00635-.02576-.01318-.03876-.01953-.01373-.00659-.02704-.01367-.04071-.02026-.013-.00635-.02576-.01318-.03876-.01941-.01373-.00659-.02704-.01379-.04071-.02039-.013-.00623-.02576-.01318-.03876-.01929-.01355-.00659-.02667-.01367-.04022-.02026-.01355-.00647-.02673-.01343-.04028-.02002-.013-.00635-.02576-.01318-.03876-.01941-.01373-.00659-.02704-.01379-.04071-.02039-.013-.00623-.02576-.01318-.03876-.01929-.01373-.00659-.02704-.01379-.04071-.02039-.013-.00623-.02576-.01318-.03876-.01941-.01373-.00659-.02704-.01367-.04071-.02026-.013-.00635-.02576-.01318-.03876-.01953-.01373-.00659-.02704-.01367-.04071-.02026-.013-.00635-.02576-.01318-.03876-.01941-.01373-.00659-.02704-.01379-.04071-.02039-.013-.00623-.02576-.01318-.03876-.01929-.01373-.00659-.02704-.01379-.04071-.02039-.013-.00623-.02576-.01318-.03876-.01941-.01373-.00659-.02704-.01367-.04071-.02026-.013-.00635-.02576-.01318-.03876-.01953-.01373-.00659-.02704-.01367-.04071-.02026-.013-.00635-.02576-.01318-.03876-.01941-.01373-.00659-.02704-.01379-.04071-.02039-.013-.00623-.02576-.01318-.03876-.01929-.01373-.00659-.02704-.01379-.04071-.02039-.013-.00623-.02576-.01318-.03876-.01941-.01373-.00659-.02704-.01367-.04071-.02026-.013-.00635-.02576-.01318-.03876-.01953-.01373-.00659-.02704-.01367-.04071-.02026-.013-.00635-.02576-.01318-.03876-.01941-.01373-.00659-.02704-.01379-.04071-.02039-.013-.00623-.02576-.01318-.03876-.01929-.01373-.00659-.02704-.01379-.04071-.02039-.013-.00623-.02576-.01318-.03876-.01941-.01373-.00659-.02704-.01367-.04071-.02026-.013-.00635-.02576-.01318-.03876-.01953-.01373-.00659-.02704-.01367-.04071-.02026-.013-.00635-.02576-.01318-.03876-.01941-.01373-.00659-.02704-.01379-.04071-.02039-.013-.00623-.02576-.01318-.03876-.01929-.01373-.00659-.02704-.01379-.04071-.02039-.013-.00623-.02576-.01318-.03876-.01941-.01373-.00659-.02704-.01367-.04071-.02026-.013-.00635-.02576-.01318-.03876-.01953-.01373-.00659-.02704-.01367-.04071-.02026-.013-.00635-.02576-.01318-.03876-.01941-.01373-.00659-.02704-.01379-.04071-.02039-.013-.00623-.02576-.01318-.03876-.01929-.01373-.00659-.02704-.01379-.04071-.02039-.013-.00623-.02576-.01318-.03876-.01941-.01373-.00659-.02704-.01367-.04071-.02026-.013-.00635-.02576-.01318-.03876-.01953-.01373-.00659-.02704-.01367-.04071-.02026-.01318-.00635-.02606-.01331-.03925-.01965-.01324-.00647-.02612-.01331-.03931-.01965-.01373-.00659-.02704-.01367-.04071-.02026-.013-.00635-.02576-.01318-.03876-.01953-.01373-.00659-.02704-.01367-.04071-.02026-.013-.00635-.02576-.01318-.03876-.01941-.01373-.00659-.02704-.01379-.04071-.02039-.013-.00623-.02576-.01318-.03876-.01929-.01373-.00659-.02704-.01379-.04071-.02039-.013-.00623-.02576-.01318-.03876-.01941-.01373-.00659-.02704-.01367-.04071-.02026-.013-.00635-.02576-.01318-.03876-.01953-.01373-.00659-.02704-.01367-.04071-.02026-.013-.00635-.02576-.01318-.03876-.01941-.01373-.00659-.02704-.01379-.04071-.02039-.013-.00623-.02576-.01318-.03876-.01929-.01373-.00659-.02704-.01379-.04071-.02039-.013-.00623-.02576-.01318-.03876-.01941-.01373-.00659-.02704-.01367-.04071-.02026-.013-.00635-.02576-.01318-.03876-.01953-.01373-.00659-.02704-.01367-.04071-.02026-.013-.00635-.02576-.01318-.03876-.01941-.01373-.00659-.02704-.01379-.04071-.02039-.013-.00623-.02576-.01318-.03876-.01929-.01373-.00659-.02704-.01379-.04071-.02039-.013-.00623-.02576-.01318-.03876-.01941-.01373-.00659-.02704-.01367-.04071-.02026-.013-.00635-.02576-.01318-.03876-.01953-.01373-.00659-.02704-.01367-.04071-.02026-.013-.00635-.02576-.01318-.03876-.01941-.01373-.00659-.02704-.01379-.04071-.02039-.013-.00623-.02576-.01318-.03876-.01929-.01373-.00659-.02704-.01379-.04071-.02039-.013-.00623-.02576-.01318-.03876-.01941-.01373-.00659-.02704-.01367-.04071-.02026-.013-.00635-.02576-.01318-.03876-.01953-.01373-.00659-.02704-.01367-.04071-.02026-.013-.00635-.02576-.01318-.03876-.01941-.01373-.00659-.02704-.01379-.04071-.02039-.013-.00623-.02576-.01318-.03876-.01929-.01373-.00659-.02704-.01379-.04071-.02039-.013-.00623-.02576-.01318-.03876-.01941-.01373-.00659-.02704-.01367-.04071-.02026-.013-.00635-.02576-.01318-.03876-.01953-.01373-.00659-.02704-.01367-.04071-.02026-.013-.00635-.02576-.01318-.03876-.01941-.01373-.00659-.02704-.01379-.04071-.02039-.013-.00623-.02576-.01318-.03876-.01929-.01373-.00659-.02704-.01379-.04071-.02039-.013-.00623-.02576-.01318-.03876-.01941-.01355-.00659-.02667-.01367-.04022-.02014s-.02673-.01355-.04028-.02014c-.013-.00623-.02576-.01318-.03876-.01929-.01373-.00659-.02704-.01379-.04071-.02039-.013-.00623-.02576-.01318-.03876-.01941-.01373-.00659-.02704-.01367-.04071-.02026-.013-.00635-.02576-.01318-.03876-.01953-.01373-.00659-.02704-.01367-.04071-.02026-.013-.00635-.02576-.01318-.03876-.01941-.01373-.00659-.02704-.01379-.04071-.02039-.013-.00623-.02576-.01318-.03876-.01929-.01373-.00659-.02704-.01379-.04071-.02039-.013-.00623-.02576-.01318-.03876-.01941-.01373-.00659-.02704-.01367-.04071-.02026-.013-.00635-.02576-.01318-.03876-.01953-.01373-.00659-.02704-.01367-.04071-.02026-.013-.00635-.02576-.01318-.03876-.01941-.01373-.00659-.02704-.01379-.04071-.02039-.013-.00623-.02576-.01318-.03876-.01929-.01373-.00659-.02704-.01379-.04071-.02039-.013-.00623-.02576-.01318-.03876-.01941-.01373-.00659-.02704-.01367-.04071-.02026-.013-.00635-.02576-.01318-.03876-.01953-.01373-.00659-.02704-.01367-.04071-.02026-.013-.00635-.02576-.01318-.03876-.01941-.01373-.00659-.02704-.01379-.04071-.02039C149.06288,1.07061,144.63361.00005,139.95411.00005H30.04597C13.45204.00005,0,13.45208,0,30.04595v24.9082C0,66.88433,6.95332,77.19024,17.02833,82.04107c.013.00635.02576.01318.03876.01941.01373.00659.02704.01379.04071.02039.013.00623.02576.01318.03876.01929.01373.00659.02704.01379.04071.02039.013.00623.02576.01318.03876.01941.01373.00659.02704.01367.04071.02026.013.00635.02576.01318.03876.01953.01373.00659.02704.01367.04071.02026.013.00635.02576.01318.03876.01941.01373.00659.02704.01379.04071.02039.013.00623.02576.01318.03876.01929.01373.00659.02704.01379.04071.02039.013.00623.02576.01318.03876.01941.01373.00659.02704.01367.04071.02026.013.00635.02576.01318.03876.01953.01373.00659.02704.01367.04071.02026.013.00635.02576.01318.03876.01941.01373.00659.02704.01379.04071.02039.013.00623.02576.01318.03876.01929.01373.00659.02704.01379.04071.02039.013.00623.02576.01318.03876.01941.01373.00659.02704.01367.04071.02026.013.00635.02576.01318.03876.01953.01373.00659.02704.01367.04071.02026.01318.00635.02606.01331.03925.01965.01324.00647.02612.01331.03931.01965.01373.00659.02704.01367.04071.02026.013.00635.02576.01318.03876.01953.01373.00659.02704.01367.04071.02026.013.00635.02576.01318.03876.01941.01373.00659.02704.01379.04071.02039.013.00623.02576.01318.03876.01929.01373.00659.02704.01379.04071.02039.013.00623.02576.01318.03876.01941.01373.00659.02704.01367.04071.02026.013.00635.02576.01318.03876.01953.01373.00659.02704.01367.04071.02026.013.00635.02576.01318.03876.01941.01373.00659.02704.01379.04071.02039.013.00623.02576.01318.03876.01929.01373.00659.02704.01379.04071.02039.013.00623.02576.01318.03876.01941.01373.00659.02704.01367.04071.02026.013.00635.02576.01318.03876.01953.01373.00659.02704.01367.04071.02026.013.00635.02576.01318.03876.01941.01373.00659.02704.01379.04071.02039.013.00623.02576.01318.03876.01929.01373.00659.02704.01379.04071.02039.013.00623.02576.01318.03876.01941.01373.00659.02704.01367.04071.02026.013.00635.02576.01318.03876.01953.01373.00659.02704.01367.04071.02026.013.00635.02576.01318.03876.01941.01373.00659.02704.01379.04071.02039.013.00623.02576.01318.03876.01929.01373.00659.02704.01379.04071.02039.013.00623.02576.01318.03876.01941.01373.00659.02704.01367.04071.02026.013.00635.02576.01318.03876.01953.01373.00659.02704.01367.04071.02026.013.00635.02576.01318.03876.01941.01373.00659.02704.01379.04071.02039.013.00623.02576.01318.03876.01929.01373.00659.02704.01379.04071.02039.013.00623.02576.01318.03876.01941.01373.00659.02704.01367.04071.02026.013.00635.02576.01318.03876.01953.01373.00659.02704.01367.04071.02026.013.00635.02576.01318.03876.01941.01373.00659.02704.01379.04071.02039.013.00623.02576.01318.03876.01929.01373.00659.02704.01379.04071.02039.013.00623.02576.01318.03876.01941.01355.00659.02667.01367.04022.02014s.02673.01355.04028.02014c.013.00623.02576.01318.03876.01929.01373.00659.02704.01379.04071.02039.013.00623.02576.01318.03876.01941.01373.00659.02704.01367.04071.02026.013.00635.02576.01318.03876.01953.01373.00659.02704.01367.04071.02026.013.00635.02576.01318.03876.01941.01373.00659.02704.01379.04071.02039.013.00623.02576.01318.03876.01929.01373.00659.02704.01379.04071.02039.013.00623.02576.01318.03876.01941.01373.00659.02704.01367.04071.02026.013.00635.02576.01318.03876.01953.01373.00659.02704.01367.04071.02026.013.00635.02576.01318.03876.01941.01373.00659.02704.01379.04071.02039.013.00623.02576.01318.03876.01929.01373.00659.02704.01379.04071.02039.013.00623.02576.01318.03876.01941.01373.00659.02704.01367.04071.02026.013.00635.02576.01318.03876.01953.01373.00659.02704.01367.04071.02026.013.00635.02576.01318.03876.01941.01373.00659.02704.01379.04071.02039.013.00623.02576.01318.03876.01929.01373.00659.02704.01379.04071.02039.013.00623.02576.01318.03876.01941.01373.00659.02704.01367.04071.02026.013.00635.02576.01318.03876.01953.01373.00659.02704.01367.04071.02026.013.00635.02576.01318.03876.01941.01373.00659.02704.01379.04071.02039.013.00623.02576.01318.03876.01929.01373.00659.02704.01379.04071.02039.013.00623.02576.01318.03876.01941.01373.00659.02704.01367.04071.02026.013.00635.02576.01318.03876.01953.01373.00659.02704.01367.04071.02026.013.00635.02576.01318.03876.01941.01373.00659.02704.01379.04071.02039.013.00623.02576.01318.03876.01929.01373.00659.02704.01379.04071.02039.013.00623.02576.01318.03876.01941.01373.00659.02704.01367.04071.02026.013.00635.02576.01318.03876.01953.01373.00659.02704.01367.04071.02026.013.00635.02576.01318.03876.01941.01373.00659.02704.01379.04071.02039.01318.00635.02606.01318.03925.01953.01324.00647.02612.01343.03931.01978.01373.00659.02704.01367.04071.02026.013.00635.02576.01318.03876.01941.01373.00659.02704.01379.04071.02039.013.00623.02576.01318.03876.01929.01373.00659.02704.01379.04071.02039.013.00623.02576.01318.03876.01941.01373.00659.02704.01367.04071.02026.013.00635.02576.01318.03876.01953.01373.00659.02704.01367.04071.02026.013.00635.02576.01318.03876.01941.01373.00659.02704.01379.04071.02039.013.00623.02576.01318.03876.01929.01373.00659.02704.01379.04071.02039.013.00623.02576.01318.03876.01941.01373.00659.02704.01367.04071.02026.013.00635.02576.01318.03876.01953.01373.00659.02704.01367.04071.02026.013.00635.02576.01318.03876.01941.01373.00659.02704.01379.04071.02039.013.00623.02576.01318.03876.01929.01373.00659.02704.01379.04071.02039.013.00623.02576.01318.03876.01941.01373.00659.02704.01367.04071.02026.013.00635.02576.01318.03876.01953,3.94885,1.90857,8.37836,2.97925,13.05829,2.97925h109.91815c16.58838,0,30.03595-13.44751,30.03595-30.03589v-24.91821c0-11.92981-6.95288-22.2356-17.02734-27.08643Z"/>
      <g>
        <path class="cls-4" d="M30.04611,83.00049c-15.46436,0-28.0459-12.58105-28.0459-28.0459v-24.9082C2.00021,14.58154,14.58176,2.00049,30.04611,2.00049h109.9082c15.46436,0,28.0459,12.58105,28.0459,28.0459v24.91797c0,15.45898-12.57715,28.03613-28.03613,28.03613H30.04611Z"/>
        <path d="M139.95413,4c14.36176,0,26.04587,11.6842,26.04587,26.0459v24.91821c0,14.3562-11.67966,26.03589-26.03592,26.03589H30.04587c-14.36174,0-26.04587-11.68408-26.04587-26.04578v-24.9082C4,15.6842,15.68416,4,30.04594,4h109.90819M139.95413,0H30.04594C13.45203,0,0,13.45203,0,30.04602v24.9082c0,16.59387,13.452,30.04578,30.04587,30.04578h109.91821c16.58838,0,30.03592-13.44751,30.03592-30.03589v-24.91821c0-16.59387-13.452-30.0459-30.04587-30.0459h0Z"/>
      </g>
    </g>
  </g>
</svg>