<?xml version="1.0" encoding="UTF-8"?>
<svg id="Layer_2" data-name="Layer 2" xmlns="http://www.w3.org/2000/svg" xmlns:xlink="http://www.w3.org/1999/xlink" viewBox="0 0 180.57 85.67">
  <defs>
    <style>
      .cls-1 {
        fill: #333;
      }

      .cls-2 {
        fill: url(#New_Pattern);
      }

      .cls-3, .cls-4 {
        fill: none;
      }

      .cls-5 {
        letter-spacing: -.02em;
      }

      .cls-6 {
        letter-spacing: 0em;
      }

      .cls-7 {
        fill: #fffb6c;
      }

      .cls-8 {
        fill: #5bf672;
      }

      .cls-4 {
        stroke: #000;
        stroke-miterlimit: 10;
        stroke-width: 5px;
      }

      .cls-9 {
        fill: #ff37ce;
        font-family: Montserrat-Bold, Montserrat;
        font-size: 19px;
        font-variation-settings: 'wght' 700;
        font-weight: 700;
      }

      .cls-10 {
        clip-path: url(#clippath);
      }
    </style>
    <clipPath id="clippath">
      <rect class="cls-4" x="2.5" y="2.5" width="169.94" height="76.94" rx="26.05" ry="26.05"/>
    </clipPath>
    <pattern id="New_Pattern" data-name="New Pattern" x="0" y="0" width="20" height="20" patternTransform="translate(6386.99 6652.64) scale(2.05)" patternUnits="userSpaceOnUse" viewBox="0 0 20 20">
      <g>
        <rect class="cls-3" width="20" height="20"/>
        <rect class="cls-7" x="9.03" y="0" width="10.97" height="10.97"/>
        <rect class="cls-7" x="0" y="9.1" width="10.9" height="10.9"/>
        <rect class="cls-8" width="10" height="10"/>
        <rect class="cls-8" x="10" y="10" width="10" height="10"/>
      </g>
    </pattern>
  </defs>
  <g id="Design">
    <g>
      <g>
        <path d="M167.73,10.96c-.07-.05-.13-.09-.2-.14-.07-.05-.13-.09-.2-.14-.07-.05-.13-.1-.2-.14-.07-.05-.13-.09-.2-.14-.07-.05-.13-.09-.2-.14-.07-.05-.13-.09-.2-.14-.07-.05-.13-.09-.2-.14-.07-.05-.13-.09-.2-.14-.07-.05-.13-.09-.2-.14-.07-.05-.13-.09-.2-.14-.07-.05-.13-.1-.2-.14-.07-.05-.13-.09-.2-.14-.07-.05-.13-.1-.2-.14-.07-.05-.13-.09-.2-.14-.07-.05-.13-.09-.2-.14-.07-.05-.13-.09-.2-.14-.07-.05-.13-.09-.2-.14-.07-.05-.13-.09-.2-.14-.07-.05-.13-.1-.2-.14-.07-.05-.13-.09-.2-.14-.07-.05-.13-.09-.2-.14-.07-.05-.13-.09-.2-.14-.07-.05-.13-.09-.2-.14-.07-.05-.13-.1-.2-.14-.07-.05-.13-.09-.2-.14-.07-.05-.13-.09-.2-.14-.07-.05-.13-.1-.2-.14-.07-.05-.13-.09-.2-.14-.07-.05-.13-.09-.2-.14-.07-.05-.13-.09-.2-.14-5.31-3.79-11.9-6.04-19.05-6.04H32.25C14.78.67.57,14.12.57,30.66v20.62c0,9.86,5.05,18.62,12.84,24.09.07.05.13.09.2.14.07.05.13.09.2.14.07.05.13.1.2.14.07.05.13.09.2.14.07.05.13.09.2.14.07.05.13.09.2.14.07.05.13.09.2.14.07.05.13.1.2.14.07.05.13.09.2.14.07.05.13.09.2.14.07.05.13.1.2.14.07.05.13.09.2.14.07.05.13.09.2.14.07.05.13.09.2.14.07.05.13.09.2.14.07.05.13.09.2.14.07.05.13.09.2.14.07.05.13.09.2.14.07.05.13.1.2.14.07.05.13.09.2.14.07.05.13.09.2.14.07.05.13.09.2.14.07.05.13.09.2.14.07.05.13.09.2.14.07.05.13.09.2.14.07.05.13.09.2.14.07.05.13.1.2.14.07.05.13.09.2.14.07.05.13.1.2.14.07.05.13.09.2.14,5.31,3.79,11.9,6.04,19.05,6.04h110.43c17.47,0,31.69-13.45,31.69-29.99v-20.62c0-9.86-5.05-18.62-12.84-24.09Z"/>
        <g>
          <g class="cls-10">
            <rect class="cls-2" x="-43.43" y="-18.06" width="241.71" height="108.15"/>
          </g>
          <rect class="cls-4" x="2.5" y="2.5" width="169.94" height="76.94" rx="26.05" ry="26.05"/>
        </g>
      </g>
      <g>
        <path class="cls-1" d="M15.81,49.08c-1.11,0-2.13-.17-3.07-.51-.94-.34-1.75-.82-2.45-1.44-.7-.62-1.23-1.35-1.62-2.19s-.57-1.75-.57-2.74.19-1.92.57-2.75c.38-.83.92-1.55,1.62-2.18.7-.62,1.51-1.1,2.44-1.44.93-.34,1.95-.51,3.06-.51s2.13.17,3.06.5,1.74.81,2.44,1.43c.7.62,1.23,1.35,1.62,2.18.38.84.57,1.75.57,2.75s-.19,1.9-.57,2.75c-.38.84-.92,1.57-1.62,2.19-.7.62-1.51,1.1-2.44,1.43-.93.33-1.94.5-3.04.5ZM15.79,46.48c.63,0,1.21-.1,1.74-.31.53-.21.99-.51,1.4-.89.4-.39.71-.84.93-1.35s.33-1.09.33-1.72-.11-1.21-.33-1.72c-.22-.51-.53-.96-.93-1.35-.4-.39-.87-.68-1.4-.89-.53-.21-1.11-.31-1.74-.31s-1.21.1-1.75.31-1,.51-1.4.89c-.4.39-.7.84-.92,1.35-.22.51-.33,1.09-.33,1.72s.11,1.21.33,1.72c.22.51.53.96.92,1.35.39.39.86.68,1.4.89s1.12.31,1.75.31Z"/>
        <path class="cls-1" d="M27.92,48.86v-8.47l.7.67h-4.36v-2.41h10.42v2.41h-4.36l.72-.67v8.47h-3.13Z"/>
        <path class="cls-1" d="M36.35,48.86v-10.22h3.11v10.22h-3.11ZM38.56,44.98v-2.38h3.77v2.38h-3.77ZM43.24,44.07l-2.93-.29,3.79-5.15h3.33l-4.2,5.43ZM44,48.86l-3.59-4.83,2.53-1.44,4.76,6.27h-3.69Z"/>
        <path class="cls-1" d="M49.22,52.54v-13.91h2.99v2.09l-.06,3.04.2,3.02v5.76h-3.13ZM55.58,49.01c-.9,0-1.69-.19-2.37-.57s-1.21-.96-1.6-1.74c-.38-.78-.57-1.76-.57-2.96s.18-2.19.54-2.96c.36-.77.89-1.35,1.58-1.73.69-.38,1.5-.57,2.42-.57,1.03,0,1.95.22,2.76.66.81.44,1.45,1.05,1.93,1.83s.71,1.71.71,2.77-.24,2-.71,2.78c-.48.78-1.12,1.39-1.93,1.82-.81.44-1.73.66-2.76.66ZM55.06,46.58c.52,0,.99-.11,1.4-.34.41-.23.74-.55.98-.98.25-.42.37-.93.37-1.51s-.12-1.1-.37-1.52c-.25-.42-.58-.74-.98-.96-.41-.22-.87-.33-1.4-.33s-.99.11-1.41.33c-.42.22-.75.54-.99.96-.25.42-.37.92-.37,1.52s.12,1.09.37,1.51c.25.42.58.75.99.98.41.23.88.34,1.41.34Z"/>
        <path class="cls-1" d="M68.43,48.86h-5.26v-10.22h3.11v3.27h2.59c1.41,0,2.47.3,3.18.89.72.59,1.07,1.43,1.07,2.51s-.41,2-1.21,2.63c-.81.63-1.97.93-3.48.92ZM68.13,46.77c.62.01,1.08-.11,1.41-.37.32-.26.48-.64.48-1.13s-.16-.87-.48-1.09-.79-.34-1.41-.35l-1.85-.02v2.96h1.85ZM74.27,48.86v-10.22h3.15v10.22h-3.15Z"/>
        <path class="cls-1" d="M82.73,48.86v-8.47l.7.67h-4.36v-2.41h10.42v2.41h-4.36l.72-.67v8.47h-3.13Z"/>
        <path class="cls-1" d="M96.6,48.86h-5.44v-10.22h3.11v3.27h2.73c1.42,0,2.5.3,3.24.89.74.59,1.11,1.43,1.11,2.51s-.42,2-1.26,2.63c-.84.63-2.01.93-3.49.92ZM96.3,46.77c.6.01,1.06-.11,1.39-.37.32-.26.48-.64.48-1.13s-.16-.87-.47-1.09-.78-.34-1.4-.35l-2.03-.02v2.96h2.03Z"/>
        <path class="cls-1" d="M107.68,51.06v-4.64h13.41v4.64h-2.89v-2.2h-7.61v2.2h-2.91ZM111.13,46.84l-3.07-.42c.37,0,.69-.11.93-.33s.44-.53.56-.93c.13-.4.22-.86.29-1.37.07-.51.11-1.05.14-1.62l.14-3.53h9.42v8.89h-3.13v-6.48h-3.53l-.06,1.35c-.03.53-.06,1.04-.1,1.54s-.12.94-.24,1.34c-.12.4-.28.73-.49,1.01s-.49.46-.85.56Z"/>
        <path class="cls-1" d="M128.1,49.01c-1.14,0-2.15-.23-3.04-.68-.89-.46-1.59-1.08-2.1-1.87-.51-.79-.76-1.69-.76-2.71s.25-1.93.76-2.73c.51-.79,1.21-1.41,2.1-1.86.89-.45,1.9-.67,3.04-.67s2.17.22,3.07.67c.9.45,1.6,1.07,2.11,1.86.51.79.76,1.7.76,2.73s-.25,1.93-.76,2.72c-.51.79-1.21,1.41-2.11,1.86-.9.46-1.92.68-3.07.68ZM128.1,46.58c.54,0,1.01-.11,1.42-.33s.74-.55.98-.98c.25-.43.37-.94.37-1.52s-.12-1.1-.37-1.52c-.25-.42-.58-.74-.98-.96-.41-.22-.87-.33-1.4-.33s-.99.11-1.41.33c-.41.22-.75.54-.99.96s-.37.92-.37,1.52.12,1.09.37,1.52.58.76.99.98c.42.22.88.33,1.39.33Z"/>
        <path class="cls-1" d="M141.33,49.01c-1.16,0-2.2-.22-3.1-.67-.9-.45-1.61-1.07-2.13-1.87-.52-.8-.77-1.7-.77-2.72s.26-1.93.77-2.72c.51-.79,1.22-1.41,2.13-1.86s1.94-.68,3.1-.68,2.13.22,2.98.67c.85.45,1.46,1.09,1.84,1.91l-2.41,1.25c-.29-.48-.65-.83-1.06-1.05-.42-.22-.87-.33-1.37-.33-.52,0-1,.11-1.43.33-.43.22-.77.54-1.02.96-.25.42-.38.92-.38,1.52s.13,1.11.38,1.53c.25.42.6.75,1.02.97.43.22.9.33,1.43.33.5,0,.95-.11,1.37-.33.41-.22.77-.58,1.06-1.07l2.41,1.25c-.38.81-.99,1.44-1.84,1.9-.85.46-1.84.68-2.98.68Z"/>
        <path class="cls-1" d="M148.07,48.86v-10.22h3.11v10.22h-3.11ZM150.28,44.98v-2.38h3.77v2.38h-3.77ZM154.96,44.07l-2.93-.29,3.79-5.15h3.33l-4.2,5.43ZM155.72,48.86l-3.59-4.83,2.53-1.44,4.76,6.27h-3.69Z"/>
        <path class="cls-1" d="M162.02,52.7c-.55,0-1.1-.08-1.65-.25-.55-.17-1-.39-1.37-.68l1.14-2.13c.24.21.52.38.83.49.31.11.63.17.95.17.43,0,.77-.1,1.03-.29.26-.2.5-.52.71-.98l.56-1.25.24-.32,3.89-8.82h2.99l-4.88,10.85c-.35.84-.75,1.49-1.19,1.95-.45.46-.94.79-1.49.98-.54.19-1.14.29-1.8.29ZM163.87,49.26l-4.8-10.62h3.21l3.75,8.57-2.17,2.05Z"/>
      </g>
      <text class="cls-9" transform="translate(5.34 46.86) scale(1.06 1)"><tspan class="cls-6" x="0" y="0">О</tspan><tspan x="15.87" y="0">ткрыть дос</tspan><tspan class="cls-5" x="131.76" y="0">к</tspan><tspan x="143.58" y="0">у</tspan></text>
    </g>
  </g>
</svg>