<?xml version="1.0" encoding="UTF-8"?>
<svg id="Layer_2" data-name="Layer 2" xmlns="http://www.w3.org/2000/svg" xmlns:xlink="http://www.w3.org/1999/xlink" viewBox="0 0 176 88">
  <defs>
    <style>
      .cls-1 {
        fill: #ff37ce;
      }

      .cls-2 {
        fill: url(#linear-gradient-2);
      }

      .cls-3 {
        fill: url(#linear-gradient);
      }
    </style>
    <linearGradient id="linear-gradient" x1="10.32023" y1="17.54284" x2="167.79942" y2="70.1718" gradientUnits="userSpaceOnUse">
      <stop offset="0" stop-color="#95ebf2"/>
      <stop offset=".03434" stop-color="#95ebf2" stop-opacity=".89976"/>
      <stop offset=".13403" stop-color="#95ebf2" stop-opacity=".62999"/>
      <stop offset=".229" stop-color="#95ebf2" stop-opacity=".40519"/>
      <stop offset=".3166" stop-color="#95ebf2" stop-opacity=".22988"/>
      <stop offset=".39526" stop-color="#95ebf2" stop-opacity=".10402"/>
      <stop offset=".46221" stop-color="#95ebf2" stop-opacity=".02736"/>
      <stop offset=".50947" stop-color="#95ebf2" stop-opacity="0"/>
    </linearGradient>
    <linearGradient id="linear-gradient-2" x1="15.38101" y1="11.97756" x2="167.41294" y2="78.6328" gradientUnits="userSpaceOnUse">
      <stop offset=".58627" stop-color="#95ebf2" stop-opacity="0"/>
      <stop offset="1" stop-color="#95ebf2"/>
    </linearGradient>
  </defs>
  <g id="Design">
    <g>
      <path d="M158.97266,5.95947c-.01373-.00659-.02704-.01379-.04071-.02039-.013-.00623-.02576-.01318-.03876-.01941-.01373-.00659-.02704-.01367-.04071-.02026-.013-.00635-.02576-.01318-.03876-.01953-.01373-.00659-.02704-.01367-.04071-.02026-.013-.00635-.02576-.01318-.03876-.01941-.01373-.00659-.02704-.01379-.04071-.02039-.013-.00623-.02576-.01318-.03876-.01929-.01373-.00659-.02704-.01379-.04071-.02039-.013-.00623-.02576-.01318-.03876-.01941-.01373-.00659-.02704-.01367-.04071-.02026-.013-.00635-.02576-.01318-.03876-.01953-.01373-.00659-.02704-.01367-.04071-.02026-.013-.00635-.02576-.01318-.03876-.01941-.01373-.00659-.02704-.01379-.04071-.02039-.013-.00623-.02576-.01318-.03876-.01929-.01373-.00659-.02704-.01379-.04071-.02039-.013-.00623-.02576-.01318-.03876-.01941-.01373-.00659-.02704-.01367-.04071-.02026-.013-.00635-.02576-.01318-.03876-.01953-.01373-.00659-.02704-.01367-.04071-.02026-.013-.00635-.02576-.01318-.03876-.01941-.01373-.00659-.02704-.01379-.04071-.02039-.013-.00623-.02576-.01318-.03876-.01929-.01355-.00659-.02667-.01367-.04022-.02026-.01355-.00647-.02673-.01343-.04028-.02002-.013-.00635-.02576-.01318-.03876-.01941-.01373-.00659-.02704-.01379-.04071-.02039-.013-.00623-.02576-.01318-.03876-.01929-.01373-.00659-.02704-.01379-.04071-.02039-.013-.00623-.02576-.01318-.03876-.01941-.01373-.00659-.02704-.01367-.04071-.02026-.013-.00635-.02576-.01318-.03876-.01953-.01373-.00659-.02704-.01367-.04071-.02026-.013-.00635-.02576-.01318-.03876-.01941-.01373-.00659-.02704-.01379-.04071-.02039-.013-.00623-.02576-.01318-.03876-.01929-.01373-.00659-.02704-.01379-.04071-.02039-.013-.00623-.02576-.01318-.03876-.01941-.01373-.00659-.02704-.01367-.04071-.02026-.013-.00635-.02576-.01318-.03876-.01953-.01373-.00659-.02704-.01367-.04071-.02026-.013-.00635-.02576-.01318-.03876-.01941-.01373-.00659-.02704-.01379-.04071-.02039-.013-.00623-.02576-.01318-.03876-.01929-.01373-.00659-.02704-.01379-.04071-.02039-.013-.00623-.02576-.01318-.03876-.01941-.01373-.00659-.02704-.01367-.04071-.02026-.013-.00635-.02576-.01318-.03876-.01953-.01373-.00659-.02704-.01367-.04071-.02026-.013-.00635-.02576-.01318-.03876-.01941-.01373-.00659-.02704-.01379-.04071-.02039-.013-.00623-.02576-.01318-.03876-.01929-.01373-.00659-.02704-.01379-.04071-.02039-.013-.00623-.02576-.01318-.03876-.01941-.01373-.00659-.02704-.01367-.04071-.02026-.013-.00635-.02576-.01318-.03876-.01953-.01373-.00659-.02704-.01367-.04071-.02026-.013-.00635-.02576-.01318-.03876-.01941-.01373-.00659-.02704-.01379-.04071-.02039-.013-.00623-.02576-.01318-.03876-.01929-.01373-.00659-.02704-.01379-.04071-.02039-.013-.00623-.02576-.01318-.03876-.01941-.01373-.00659-.02704-.01367-.04071-.02026-.013-.00635-.02576-.01318-.03876-.01953-.01373-.00659-.02704-.01367-.04071-.02026-.013-.00635-.02576-.01318-.03876-.01941-.01373-.00659-.02704-.01379-.04071-.02039-.013-.00623-.02576-.01318-.03876-.01929-.01373-.00659-.02704-.01379-.04071-.02039-.013-.00623-.02576-.01318-.03876-.01941-.01373-.00659-.02704-.01367-.04071-.02026-.013-.00635-.02576-.01318-.03876-.01953-.01373-.00659-.02704-.01367-.04071-.02026-.01318-.00635-.02606-.01331-.03925-.01965-.01324-.00647-.02612-.01331-.03931-.01965-.01373-.00659-.02704-.01367-.04071-.02026-.013-.00635-.02576-.01318-.03876-.01953-.01373-.00659-.02704-.01367-.04071-.02026-.013-.00635-.02576-.01318-.03876-.01941-.01373-.00659-.02704-.01379-.04071-.02039-.013-.00623-.02576-.01318-.03876-.01929-.01373-.00659-.02704-.01379-.04071-.02039-.013-.00623-.02576-.01318-.03876-.01941-.01373-.00659-.02704-.01367-.04071-.02026-.013-.00635-.02576-.01318-.03876-.01953-.01373-.00659-.02704-.01367-.04071-.02026-.013-.00635-.02576-.01318-.03876-.01941-.01373-.00659-.02704-.01379-.04071-.02039-.013-.00623-.02576-.01318-.03876-.01929-.01373-.00659-.02704-.01379-.04071-.02039-.013-.00623-.02576-.01318-.03876-.01941-.01373-.00659-.02704-.01367-.04071-.02026-.013-.00635-.02576-.01318-.03876-.01953-.01373-.00659-.02704-.01367-.04071-.02026-.013-.00635-.02576-.01318-.03876-.01941-.01373-.00659-.02704-.01379-.04071-.02039-.013-.00623-.02576-.01318-.03876-.01929-.01373-.00659-.02704-.01379-.04071-.02039-.013-.00623-.02576-.01318-.03876-.01941-.01373-.00659-.02704-.01367-.04071-.02026-.013-.00635-.02576-.01318-.03876-.01953-.01373-.00659-.02704-.01367-.04071-.02026-.013-.00635-.02576-.01318-.03876-.01941-.01373-.00659-.02704-.01379-.04071-.02039-.013-.00623-.02576-.01318-.03876-.01929-.01373-.00659-.02704-.01379-.04071-.02039-.013-.00623-.02576-.01318-.03876-.01941-.01373-.00659-.02704-.01367-.04071-.02026-.013-.00635-.02576-.01318-.03876-.01953-.01373-.00659-.02704-.01367-.04071-.02026-.013-.00635-.02576-.01318-.03876-.01941-.01373-.00659-.02704-.01379-.04071-.02039-.013-.00623-.02576-.01318-.03876-.01929-.01373-.00659-.02704-.01379-.04071-.02039-.013-.00623-.02576-.01318-.03876-.01941-.01373-.00659-.02704-.01367-.04071-.02026-.013-.00635-.02576-.01318-.03876-.01953-.01373-.00659-.02704-.01367-.04071-.02026-.013-.00635-.02576-.01318-.03876-.01941-.01373-.00659-.02704-.01379-.04071-.02039-.013-.00623-.02576-.01318-.03876-.01929-.01373-.00659-.02704-.01379-.04071-.02039-.013-.00623-.02576-.01318-.03876-.01941-.01355-.00659-.02667-.01367-.04022-.02014s-.02673-.01355-.04028-.02014c-.013-.00623-.02576-.01318-.03876-.01929-.01373-.00659-.02704-.01379-.04071-.02039-.013-.00623-.02576-.01318-.03876-.01941-.01373-.00659-.02704-.01367-.04071-.02026-.013-.00635-.02576-.01318-.03876-.01953-.01373-.00659-.02704-.01367-.04071-.02026-.013-.00635-.02576-.01318-.03876-.01941-.01373-.00659-.02704-.01379-.04071-.02039-.013-.00623-.02576-.01318-.03876-.01929-.01373-.00659-.02704-.01379-.04071-.02039-.013-.00623-.02576-.01318-.03876-.01941-.01373-.00659-.02704-.01367-.04071-.02026-.013-.00635-.02576-.01318-.03876-.01953-.01373-.00659-.02704-.01367-.04071-.02026-.013-.00635-.02576-.01318-.03876-.01941-.01373-.00659-.02704-.01379-.04071-.02039-.013-.00623-.02576-.01318-.03876-.01929-.01373-.00659-.02704-.01379-.04071-.02039-.013-.00623-.02576-.01318-.03876-.01941-.01373-.00659-.02704-.01367-.04071-.02026-.013-.00635-.02576-.01318-.03876-.01953-.01373-.00659-.02704-.01367-.04071-.02026-.013-.00635-.02576-.01318-.03876-.01941-.01373-.00659-.02704-.01379-.04071-.02039-3.94855-1.9082-8.37781-2.97876-13.05731-2.97876H30.04596C13.45203,0,0,13.45203,0,30.0459v24.9082c0,11.93018,6.95331,22.23608,17.02832,27.08691.013.00635.02576.01318.03876.01941.01373.00659.02704.01379.04071.02039.013.00623.02576.01318.03876.01929.01373.00659.02704.01379.04071.02039.013.00623.02576.01318.03876.01941.01373.00659.02704.01367.04071.02026.013.00635.02576.01318.03876.01953.01373.00659.02704.01367.04071.02026.013.00635.02576.01318.03876.01941.01373.00659.02704.01379.04071.02039.013.00623.02576.01318.03876.01929.01373.00659.02704.01379.04071.02039.013.00623.02576.01318.03876.01941.01373.00659.02704.01367.04071.02026.013.00635.02576.01318.03876.01953.01373.00659.02704.01367.04071.02026.013.00635.02576.01318.03876.01941.01373.00659.02704.01379.04071.02039.013.00623.02576.01318.03876.01929.01373.00659.02704.01379.04071.02039.013.00623.02576.01318.03876.01941.01373.00659.02704.01367.04071.02026.013.00635.02576.01318.03876.01953.01373.00659.02704.01367.04071.02026.01318.00635.02606.01331.03925.01965.01324.00647.02612.01331.03931.01965.01373.00659.02704.01367.04071.02026.013.00635.02576.01318.03876.01953.01373.00659.02704.01367.04071.02026.013.00635.02576.01318.03876.01941.01373.00659.02704.01379.04071.02039.013.00623.02576.01318.03876.01929.01373.00659.02704.01379.04071.02039.013.00623.02576.01318.03876.01941.01373.00659.02704.01367.04071.02026.013.00635.02576.01318.03876.01953.01373.00659.02704.01367.04071.02026.013.00635.02576.01318.03876.01941.01373.00659.02704.01379.04071.02039.013.00623.02576.01318.03876.01929.01373.00659.02704.01379.04071.02039.013.00623.02576.01318.03876.01941.01373.00659.02704.01367.04071.02026.013.00635.02576.01318.03876.01953.01373.00659.02704.01367.04071.02026.013.00635.02576.01318.03876.01941.01373.00659.02704.01379.04071.02039.013.00623.02576.01318.03876.01929.01373.00659.02704.01379.04071.02039.013.00623.02576.01318.03876.01941.01373.00659.02704.01367.04071.02026.013.00635.02576.01318.03876.01953.01373.00659.02704.01367.04071.02026.013.00635.02576.01318.03876.01941.01373.00659.02704.01379.04071.02039.013.00623.02576.01318.03876.01929.01373.00659.02704.01379.04071.02039.013.00623.02576.01318.03876.01941.01373.00659.02704.01367.04071.02026.013.00635.02576.01318.03876.01953.01373.00659.02704.01367.04071.02026.013.00635.02576.01318.03876.01941.01373.00659.02704.01379.04071.02039.013.00623.02576.01318.03876.01929.01373.00659.02704.01379.04071.02039.013.00623.02576.01318.03876.01941.01373.00659.02704.01367.04071.02026.013.00635.02576.01318.03876.01953.01373.00659.02704.01367.04071.02026.013.00635.02576.01318.03876.01941.01373.00659.02704.01379.04071.02039.013.00623.02576.01318.03876.01929.01373.00659.02704.01379.04071.02039.013.00623.02576.01318.03876.01941.01355.00659.02667.01367.04022.02014s.02673.01355.04028.02014c.013.00623.02576.01318.03876.01929.01373.00659.02704.01379.04071.02039.013.00623.02576.01318.03876.01941.01373.00659.02704.01367.04071.02026.013.00635.02576.01318.03876.01953.01373.00659.02704.01367.04071.02026.013.00635.02576.01318.03876.01941.01373.00659.02704.01379.04071.02039.013.00623.02576.01318.03876.01929.01373.00659.02704.01379.04071.02039.013.00623.02576.01318.03876.01941.01373.00659.02704.01367.04071.02026.013.00635.02576.01318.03876.01953.01373.00659.02704.01367.04071.02026.013.00635.02576.01318.03876.01941.01373.00659.02704.01379.04071.02039.013.00623.02576.01318.03876.01929.01373.00659.02704.01379.04071.02039.013.00623.02576.01318.03876.01941.01373.00659.02704.01367.04071.02026.013.00635.02576.01318.03876.01953.01373.00659.02704.01367.04071.02026.013.00635.02576.01318.03876.01941.01373.00659.02704.01379.04071.02039.013.00623.02576.01318.03876.01929.01373.00659.02704.01379.04071.02039.013.00623.02576.01318.03876.01941.01373.00659.02704.01367.04071.02026.013.00635.02576.01318.03876.01953.01373.00659.02704.01367.04071.02026.013.00635.02576.01318.03876.01941.01373.00659.02704.01379.04071.02039.013.00623.02576.01318.03876.01929.01373.00659.02704.01379.04071.02039.013.00623.02576.01318.03876.01941.01373.00659.02704.01367.04071.02026.013.00635.02576.01318.03876.01953.01373.00659.02704.01367.04071.02026.013.00635.02576.01318.03876.01941.01373.00659.02704.01379.04071.02039.013.00623.02576.01318.03876.01929.01373.00659.02704.01379.04071.02039.013.00623.02576.01318.03876.01941.01373.00659.02704.01367.04071.02026.013.00635.02576.01318.03876.01953.01373.00659.02704.01367.04071.02026.013.00635.02576.01318.03876.01941.01373.00659.02704.01379.04071.02039.01318.00635.02606.01318.03925.01953.01324.00647.02612.01343.03931.01978.01373.00659.02704.01367.04071.02026.013.00635.02576.01318.03876.01941.01373.00659.02704.01379.04071.02039.013.00623.02576.01318.03876.01929.01373.00659.02704.01379.04071.02039.013.00623.02576.01318.03876.01941.01373.00659.02704.01367.04071.02026.013.00635.02576.01318.03876.01953.01373.00659.02704.01367.04071.02026.013.00635.02576.01318.03876.01941.01373.00659.02704.01379.04071.02039.013.00623.02576.01318.03876.01929.01373.00659.02704.01379.04071.02039.013.00623.02576.01318.03876.01941.01373.00659.02704.01367.04071.02026.013.00635.02576.01318.03876.01953.01373.00659.02704.01367.04071.02026.013.00635.02576.01318.03876.01941.01373.00659.02704.01379.04071.02039.013.00623.02576.01318.03876.01929.01373.00659.02704.01379.04071.02039.013.00623.02576.01318.03876.01941.01373.00659.02704.01367.04071.02026.013.00635.02576.01318.03876.01953,3.94885,1.90857,8.37836,2.97925,13.05829,2.97925h109.91815c16.58838,0,30.03595-13.44751,30.03595-30.03589v-24.91821c0-11.92981-6.95288-22.2356-17.02734-27.08643Z"/>
      <g>
        <path class="cls-1" d="M30.04572,83.00049c-15.46436,0-28.0459-12.58105-28.0459-28.0459v-24.9082C1.99982,14.58154,14.58136,2.00049,30.04572,2.00049h109.9082c15.46436,0,28.0459,12.58105,28.0459,28.04492v24.91895c0,15.45898-12.57666,28.03613-28.03564,28.03613H30.04572Z"/>
        <path d="M139.9541,4c14.36176,0,26.0459,11.6842,26.0459,26.0459v24.91821c0,14.3562-11.67969,26.03589-26.03595,26.03589H30.0459c-14.36176,0-26.0459-11.6842-26.0459-26.0459v-24.9082C4,15.6842,15.6842,4,30.04596,4h109.90814M139.9541,0H30.04596C13.45203,0,0,13.45203,0,30.0459v24.9082c0,16.59387,13.45203,30.0459,30.0459,30.0459h109.91815c16.58838,0,30.03595-13.44751,30.03595-30.03589v-24.91821c0-16.59387-13.45203-30.0459-30.0459-30.0459h0Z"/>
      </g>
      <g>
        <path class="cls-3" d="M30.04572,83.00049c-15.46436,0-28.0459-12.58105-28.0459-28.0459v-24.9082C1.99982,14.58154,14.58136,2.00049,30.04572,2.00049h109.9082c15.46436,0,28.0459,12.58105,28.0459,28.04492v24.91895c0,15.45898-12.57666,28.03613-28.03564,28.03613H30.04572Z"/>
        <path d="M139.9541,4c14.36176,0,26.0459,11.6842,26.0459,26.0459v24.91821c0,14.3562-11.67969,26.03589-26.03595,26.03589H30.0459c-14.36176,0-26.0459-11.6842-26.0459-26.0459v-24.9082C4,15.6842,15.6842,4,30.04596,4h109.90814M139.9541,0H30.04596C13.45203,0,0,13.45203,0,30.0459v24.9082c0,16.59387,13.45203,30.0459,30.0459,30.0459h109.91815c16.58838,0,30.03595-13.44751,30.03595-30.03589v-24.91821c0-16.59387-13.45203-30.0459-30.0459-30.0459h0Z"/>
      </g>
      <g>
        <path class="cls-2" d="M30.04572,83.00049c-15.46436,0-28.0459-12.58105-28.0459-28.0459v-24.9082C1.99982,14.58154,14.58136,2.00049,30.04572,2.00049h109.9082c15.46436,0,28.0459,12.58105,28.0459,28.04492v24.91895c0,15.45898-12.57666,28.03613-28.03564,28.03613H30.04572Z"/>
        <path d="M139.9541,4c14.36176,0,26.0459,11.6842,26.0459,26.0459v24.91821c0,14.3562-11.67969,26.03589-26.03595,26.03589H30.0459c-14.36176,0-26.0459-11.6842-26.0459-26.0459v-24.9082C4,15.6842,15.6842,4,30.04596,4h109.90814M139.9541,0H30.04596C13.45203,0,0,13.45203,0,30.0459v24.9082c0,16.59387,13.45203,30.0459,30.0459,30.0459h109.91815c16.58838,0,30.03595-13.44751,30.03595-30.03589v-24.91821c0-16.59387-13.45203-30.0459-30.0459-30.0459h0Z"/>
      </g>
    </g>
  </g>
</svg>