<?xml version="1.0" encoding="UTF-8"?>
<svg id="Layer_2" data-name="Layer 2" xmlns="http://www.w3.org/2000/svg" xmlns:xlink="http://www.w3.org/1999/xlink" viewBox="0 0 213.84729 213.84729">
  <defs>
    <style>
      .cls-1 {
        fill: none;
      }

      .cls-2 {
        fill: #fff;
      }

      .cls-3 {
        clip-path: url(#clippath);
      }
    </style>
    <clipPath id="clippath">
      <path class="cls-1" d="M198.22614,0H15.62115C6.99386,0,0,6.99386,0,15.62115v182.60498c0,8.62739,6.99386,15.62115,15.62115,15.62115h182.60498c8.62734,0,15.62115-6.99377,15.62115-15.62115V15.62115c0-8.62729-6.99381-15.62115-15.62115-15.62115ZM197.6555,189.84493c0,4.31365-3.49693,7.81058-7.81058,7.81058H24.00241c-4.31369,0-7.81058-3.49693-7.81058-7.81058V24.00241c0-4.31369,3.49688-7.81058,7.81058-7.81058h165.84252c4.31365,0,7.81058,3.49688,7.81058,7.81058v165.84252Z"/>
    </clipPath>
  </defs>
  <g id="Layer_1-2" data-name="Layer 1">
    <g>
      <path d="M198.22614,0H15.62115C6.99386,0,0,6.99386,0,15.62115v182.60498c0,8.62739,6.99386,15.62115,15.62115,15.62115h182.60498c8.62734,0,15.62115-6.99377,15.62115-15.62115V15.62115c0-8.62729-6.99381-15.62115-15.62115-15.62115ZM197.6555,189.84493c0,4.31365-3.49693,7.81058-7.81058,7.81058H24.00241c-4.31369,0-7.81058-3.49693-7.81058-7.81058V24.00241c0-4.31369,3.49688-7.81058,7.81058-7.81058h165.84252c4.31365,0,7.81058,3.49688,7.81058,7.81058v165.84252Z"/>
      <g class="cls-3">
        <g>
          <rect class="cls-2" x="1.99307" y="206.07001" width="411.43023" height="10.93553" transform="translate(-88.74334 208.81523) rotate(-44.99717)"/>
          <rect class="cls-2" x="-13.29018" y="190.78676" width="411.43023" height="10.93553" transform="translate(-82.41281 193.53304) rotate(-44.99717)"/>
          <rect class="cls-2" x="-28.57344" y="175.5035" width="411.43023" height="10.93553" transform="translate(-76.08228 178.25085) rotate(-44.99717)"/>
          <rect class="cls-2" x="-43.85669" y="160.22025" width="411.43023" height="10.93553" transform="translate(-69.75175 162.96866) rotate(-44.99717)"/>
          <rect class="cls-2" x="-59.13995" y="144.93699" width="411.43023" height="10.93553" transform="translate(-63.42122 147.68647) rotate(-44.99717)"/>
          <rect class="cls-2" x="-74.4232" y="129.65374" width="411.43023" height="10.93553" transform="translate(-57.09068 132.40428) rotate(-44.99717)"/>
          <rect class="cls-2" x="-89.70643" y="114.37055" width="411.43037" height="10.93539" transform="translate(-50.76012 117.12216) rotate(-44.99717)"/>
          <rect class="cls-2" x="-104.98992" y="99.08774" width="411.43104" height="10.93526" transform="translate(-44.42984 101.84015) rotate(-44.99717)"/>
          <rect class="cls-2" x="-120.27318" y="83.80449" width="411.43104" height="10.93526" transform="translate(-38.0993 86.55796) rotate(-44.99717)"/>
          <rect class="cls-2" x="-135.55611" y="68.52124" width="411.43077" height="10.93526" transform="translate(-31.76872 71.27591) rotate(-44.99717)"/>
          <rect class="cls-2" x="-150.83936" y="53.23798" width="411.43077" height="10.93526" transform="translate(-25.43819 55.99372) rotate(-44.99717)"/>
          <rect class="cls-2" x="-166.12262" y="37.95473" width="411.43077" height="10.93526" transform="translate(-19.10765 40.71153) rotate(-44.99717)"/>
          <rect class="cls-2" x="-181.40587" y="22.67147" width="411.43077" height="10.93526" transform="translate(-12.77712 25.42934) rotate(-44.99717)"/>
          <rect class="cls-2" x="-196.68913" y="7.38822" width="411.43077" height="10.93526" transform="translate(-6.44659 10.14716) rotate(-44.99717)"/>
        </g>
      </g>
    </g>
  </g>
</svg>